<?xml version="1.0" encoding="utf-8"?>
<!-- Generator: Adobe Illustrator 25.2.0, SVG Export Plug-In . SVG Version: 6.00 Build 0)  -->
<svg version="1.1" xmlns="http://www.w3.org/2000/svg" xmlns:xlink="http://www.w3.org/1999/xlink" x="0px" y="0px"
	 viewBox="0 0 2475 1650" style="enable-background:new 0 0 2475 1650;" xml:space="preserve">
<style type="text/css">
	.st0{fill:#FFFFFF;}
	.st1{fill:url(#SVGID_1_);}
	.st2{fill:#91B3FA;}
	.st3{fill:#BDD0FB;}
	.st4{fill:url(#SVGID_2_);}
	.st5{fill:url(#SVGID_3_);}
	.st6{fill:url(#SVGID_4_);}
	.st7{fill:url(#SVGID_5_);}
	.st8{fill:url(#SVGID_6_);}
	.st9{fill:url(#SVGID_7_);}
	.st10{fill:url(#SVGID_8_);}
	.st11{fill:url(#SVGID_9_);}
	.st12{fill:url(#SVGID_10_);}
	.st13{fill:url(#SVGID_11_);}
	.st14{fill:url(#SVGID_12_);}
	.st15{fill:url(#SVGID_13_);}
	.st16{fill:url(#SVGID_14_);}
	.st17{fill:url(#SVGID_15_);}
	.st18{fill:url(#SVGID_16_);}
	.st19{fill:url(#SVGID_17_);}
	.st20{fill:url(#SVGID_18_);}
	.st21{fill:url(#SVGID_19_);}
	.st22{fill:url(#SVGID_20_);}
	.st23{fill:url(#SVGID_21_);}
	.st24{fill:#7D97F4;}
	.st25{opacity:0.64;}
	.st26{fill:url(#SVGID_22_);}
	.st27{fill:url(#SVGID_23_);}
	.st28{opacity:0.6;fill:#FFFFFF;}
	.st29{opacity:0.6;}
</style>
<g id="Background">
	<rect class="st0" width="2475" height="1650"/>
</g>
<g id="Illustration">
	<g>
		<linearGradient id="SVGID_1_" gradientUnits="userSpaceOnUse" x1="63.8857" y1="1773.9545" x2="2277.1838" y2="166.6782">
			<stop  offset="0" style="stop-color:#DAE3FE"/>
			<stop  offset="1" style="stop-color:#E9EFFD"/>
		</linearGradient>
		<path class="st1" d="M2246.7,724.3c-55.3-89.3-172.5-137.2-175.6-271c-1.2-50.7,32-91.4,17.1-141.1
			c-100-333.4-572.3-104.9-776.3-34.4c-84.9,29.3-186.6,62-277.9,57.7C928.8,330.5,831.1,272.8,727,262c-32.1-3.3-62-0.5-90,7.8
			c-105,31.1-197.8,148-232.7,277.8c-28.3,105.2,7.9,209.1-36.6,312.2c-47.4,109.8-140.7,186.1-164.2,313
			c-28.2,152.2,79.6,284.6,195.4,288.7c73.7,2.6,210.3-11,272.9-63.6c76.2-64,151.2-68.3,240-65.8c169.1,4.7,338.3,48.7,505.2,80
			c143.1,26.9,284.1,66.6,429,71.7c106.5,3.7,196.8,5.4,254.5-128.4C2169.4,1195.5,2362.7,911.6,2246.7,724.3z"/>
		<g>
			<g>
				<g>
					<path class="st2" d="M2145.2,746c-0.4,0-0.7-0.2-0.9-0.6c-0.2-0.5,0-1.1,0.5-1.3c1.2-0.6,2.4-1.2,3.6-1.8
						c0.5-0.3,1.1-0.1,1.3,0.4c0.3,0.5,0.1,1.1-0.4,1.3c-1.2,0.6-2.4,1.2-3.6,1.8C2145.5,745.9,2145.4,746,2145.2,746z"/>
					<path class="st2" d="M2050.4,766.7C2050.4,766.7,2050.4,766.7,2050.4,766.7c-2.7-0.1-5.4-0.2-8.1-0.3c-0.6,0-1-0.5-0.9-1.1
						c0-0.6,0.5-1,1.1-0.9c2.7,0.2,5.4,0.3,8,0.3c0.6,0,1,0.5,1,1C2051.4,766.3,2051,766.7,2050.4,766.7z M2063.6,766.6
						c-0.5,0-1-0.4-1-1c0-0.6,0.4-1,1-1c2.7-0.1,5.4-0.3,8-0.5c0.6,0,1,0.4,1.1,0.9c0,0.6-0.4,1-0.9,1.1
						C2069,766.3,2066.3,766.4,2063.6,766.6C2063.6,766.6,2063.6,766.6,2063.6,766.6z M2029.3,765.2c0,0-0.1,0-0.1,0
						c-2.7-0.3-5.4-0.7-8-1.2c-0.5-0.1-0.9-0.6-0.8-1.1c0.1-0.5,0.6-0.9,1.1-0.8c2.6,0.4,5.3,0.8,8,1.1c0.5,0.1,0.9,0.6,0.9,1.1
						C2030.2,764.8,2029.8,765.2,2029.3,765.2z M2084.7,764.6c-0.5,0-0.9-0.4-1-0.9c-0.1-0.5,0.3-1.1,0.8-1.1
						c2.6-0.4,5.3-0.8,7.9-1.3c0.5-0.1,1.1,0.3,1.2,0.8c0.1,0.5-0.3,1.1-0.8,1.2c-2.6,0.5-5.3,0.9-8,1.3
						C2084.8,764.6,2084.7,764.6,2084.7,764.6z M2008.4,761.5c-0.1,0-0.1,0-0.2,0c-2.6-0.6-5.3-1.3-7.9-2c-0.5-0.1-0.8-0.7-0.7-1.2
						c0.1-0.5,0.7-0.8,1.2-0.7c2.6,0.7,5.2,1.4,7.8,2c0.5,0.1,0.9,0.7,0.8,1.2C2009.3,761.2,2008.9,761.5,2008.4,761.5z
						 M2105.4,760.5c-0.4,0-0.9-0.3-1-0.8c-0.1-0.5,0.2-1.1,0.7-1.2c2.6-0.7,5.2-1.4,7.8-2.1c0.5-0.2,1.1,0.1,1.2,0.7
						c0.2,0.5-0.1,1.1-0.7,1.2c-2.6,0.8-5.2,1.5-7.8,2.1C2105.6,760.4,2105.5,760.5,2105.4,760.5z M1988,755.7c-0.1,0-0.2,0-0.3-0.1
						c-2.6-0.9-5.1-1.8-7.6-2.8c-0.5-0.2-0.8-0.8-0.6-1.3c0.2-0.5,0.8-0.8,1.3-0.6c2.5,1,5,1.9,7.6,2.8c0.5,0.2,0.8,0.7,0.6,1.3
						C1988.8,755.4,1988.4,755.7,1988,755.7z M2125.7,754.2c-0.4,0-0.8-0.3-0.9-0.7c-0.2-0.5,0.1-1.1,0.6-1.3c2.5-0.9,5-1.9,7.5-2.9
						c0.5-0.2,1.1,0,1.3,0.5c0.2,0.5,0,1.1-0.5,1.3c-2.5,1-5,2-7.6,2.9C2125.9,754.2,2125.8,754.2,2125.7,754.2z M1968.3,747.8
						c-0.1,0-0.3,0-0.4-0.1c-2.4-1.1-4.9-2.3-7.3-3.6c-0.5-0.3-0.7-0.9-0.4-1.3c0.3-0.5,0.9-0.7,1.3-0.4c2.4,1.2,4.8,2.4,7.2,3.5
						c0.5,0.2,0.7,0.8,0.5,1.3C1969.1,747.6,1968.7,747.8,1968.3,747.8z M1949.6,737.9c-0.2,0-0.3,0-0.5-0.1
						c-2.3-1.4-4.6-2.8-6.9-4.3c-0.5-0.3-0.6-0.9-0.3-1.4c0.3-0.5,0.9-0.6,1.4-0.3c2.2,1.4,4.5,2.9,6.8,4.2c0.5,0.3,0.6,0.9,0.3,1.4
						C1950.2,737.7,1949.9,737.9,1949.6,737.9z M1931.9,726.2c-0.2,0-0.4-0.1-0.6-0.2c-2.2-1.6-4.3-3.3-6.4-5
						c-0.4-0.3-0.5-1-0.2-1.4c0.3-0.4,1-0.5,1.4-0.2c2.1,1.7,4.2,3.3,6.4,4.9c0.4,0.3,0.5,1,0.2,1.4
						C1932.5,726,1932.2,726.2,1931.9,726.2z M1915.6,712.7c-0.2,0-0.5-0.1-0.7-0.3c-2-1.8-4-3.7-5.9-5.6c-0.4-0.4-0.4-1,0-1.4
						c0.4-0.4,1-0.4,1.4,0c1.9,1.9,3.9,3.7,5.8,5.5c0.4,0.4,0.4,1,0.1,1.4C1916.1,712.6,1915.8,712.7,1915.6,712.7z M1900.7,697.7
						c-0.3,0-0.5-0.1-0.7-0.3c-1.8-2-3.6-4.1-5.3-6.1c-0.4-0.4-0.3-1.1,0.1-1.4c0.4-0.4,1.1-0.3,1.4,0.1c1.7,2.1,3.5,4.1,5.2,6.1
						c0.4,0.4,0.3,1-0.1,1.4C1901.1,697.6,1900.9,697.7,1900.7,697.7z M1887.4,681.2c-0.3,0-0.6-0.1-0.8-0.4
						c-1.6-2.2-3.1-4.4-4.6-6.7c-0.3-0.5-0.2-1.1,0.3-1.4c0.5-0.3,1.1-0.2,1.4,0.3c1.5,2.2,3,4.4,4.6,6.6c0.3,0.4,0.2,1.1-0.2,1.4
						C1887.8,681.1,1887.6,681.2,1887.4,681.2z M1875.9,663.4c-0.3,0-0.7-0.2-0.9-0.5c-1.3-2.3-2.7-4.7-3.9-7.1
						c-0.3-0.5-0.1-1.1,0.4-1.4c0.5-0.3,1.1-0.1,1.4,0.4c1.2,2.4,2.5,4.7,3.9,7c0.3,0.5,0.1,1.1-0.4,1.4
						C1876.2,663.4,1876,663.4,1875.9,663.4z M1866.2,644.6c-0.4,0-0.7-0.2-0.9-0.6c-1.1-2.5-2.2-5-3.2-7.5c-0.2-0.5,0-1.1,0.6-1.3
						c0.5-0.2,1.1,0,1.3,0.6c1,2.5,2,5,3.1,7.4c0.2,0.5,0,1.1-0.5,1.3C1866.5,644.6,1866.4,644.6,1866.2,644.6z M1858.6,624.8
						c-0.4,0-0.8-0.3-1-0.7c-0.8-2.6-1.6-5.2-2.4-7.8c-0.2-0.5,0.2-1.1,0.7-1.2c0.5-0.2,1.1,0.2,1.2,0.7c0.7,2.6,1.5,5.2,2.4,7.7
						c0.2,0.5-0.1,1.1-0.6,1.3C1858.8,624.8,1858.7,624.8,1858.6,624.8z M1853,604.4c-0.5,0-0.9-0.3-1-0.8c-0.6-2.6-1.1-5.3-1.6-8
						c-0.1-0.5,0.3-1.1,0.8-1.2c0.5-0.1,1.1,0.3,1.2,0.8c0.5,2.6,1,5.3,1.6,7.9c0.1,0.5-0.2,1.1-0.8,1.2
						C1853.2,604.4,1853.1,604.4,1853,604.4z M1849.6,583.5c-0.5,0-0.9-0.4-1-0.9c-0.3-2.7-0.6-5.4-0.8-8.1c0-0.6,0.4-1,0.9-1.1
						c0.6,0,1,0.4,1.1,0.9c0.2,2.7,0.5,5.4,0.8,8c0.1,0.5-0.3,1-0.9,1.1C1849.7,583.5,1849.6,583.5,1849.6,583.5z M1848.3,562.3
						c-0.5,0-1-0.4-1-1c0-0.8,0-1.6,0-2.4c0-1.9,0-3.8,0.1-5.7c0-0.6,0.5-1,1-1c0.6,0,1,0.5,1,1c-0.1,1.9-0.1,3.8-0.1,5.6
						c0,0.8,0,1.6,0,2.4C1849.3,561.9,1848.8,562.3,1848.3,562.3C1848.3,562.3,1848.3,562.3,1848.3,562.3z M1849.1,541.2
						C1849.1,541.2,1849,541.2,1849.1,541.2c-0.6-0.1-1-0.5-1-1.1c0.2-2.7,0.5-5.4,0.9-8.1c0.1-0.5,0.6-0.9,1.1-0.9
						c0.5,0.1,0.9,0.6,0.9,1.1c-0.3,2.6-0.6,5.3-0.9,8C1850,540.8,1849.6,541.2,1849.1,541.2z M1852.1,520.2c-0.1,0-0.1,0-0.2,0
						c-0.5-0.1-0.9-0.6-0.8-1.2c0.5-2.6,1.1-5.3,1.7-7.9c0.1-0.5,0.7-0.9,1.2-0.7c0.5,0.1,0.9,0.7,0.7,1.2c-0.6,2.6-1.2,5.2-1.7,7.9
						C1853,519.8,1852.6,520.2,1852.1,520.2z M1857.3,499.6c-0.1,0-0.2,0-0.3,0c-0.5-0.2-0.8-0.7-0.7-1.2c0.8-2.6,1.6-5.2,2.5-7.7
						c0.2-0.5,0.8-0.8,1.3-0.6c0.5,0.2,0.8,0.8,0.6,1.3c-0.9,2.5-1.7,5.1-2.5,7.6C1858.1,499.3,1857.7,499.6,1857.3,499.6z"/>
					<path class="st2" d="M1864.6,479.6c-0.1,0-0.3,0-0.4-0.1c-0.5-0.2-0.7-0.8-0.5-1.3c0.5-1.2,1.1-2.5,1.6-3.7
						c0.2-0.5,0.8-0.7,1.3-0.5c0.5,0.2,0.7,0.8,0.5,1.3c-0.5,1.2-1.1,2.4-1.6,3.6C1865.3,479.4,1865,479.6,1864.6,479.6z"/>
				</g>
				<g>
					<path class="st2" d="M1976.7,368.9c-0.4,0-0.8-0.2-0.9-0.6c-0.2-0.5,0-1.1,0.5-1.3c1.2-0.5,2.5-1,3.7-1.5
						c0.5-0.2,1.1,0.1,1.3,0.6c0.2,0.5-0.1,1.1-0.6,1.3c-1.2,0.5-2.5,1-3.7,1.5C1977,368.9,1976.8,368.9,1976.7,368.9z"/>
					<path class="st2" d="M2246.4,637.6c-0.1,0-0.3,0-0.4-0.1c-0.5-0.2-0.8-0.8-0.6-1.3c1-2.4,1.9-4.9,2.8-7.4
						c0.2-0.5,0.8-0.8,1.3-0.6c0.5,0.2,0.8,0.8,0.6,1.3c-0.9,2.5-1.9,5-2.9,7.5C2247.1,637.3,2246.8,637.6,2246.4,637.6z
						 M2253.2,617.9c-0.1,0-0.2,0-0.3,0c-0.5-0.2-0.8-0.7-0.7-1.2c0.7-2.5,1.4-5.1,2.1-7.6c0.1-0.5,0.7-0.9,1.2-0.7
						c0.5,0.1,0.9,0.7,0.7,1.2c-0.6,2.6-1.3,5.2-2.1,7.7C2254,617.6,2253.6,617.9,2253.2,617.9z M2258,597.6c-0.1,0-0.1,0-0.2,0
						c-0.5-0.1-0.9-0.6-0.8-1.2c0.5-2.6,0.9-5.2,1.3-7.8c0.1-0.5,0.6-0.9,1.1-0.8c0.5,0.1,0.9,0.6,0.8,1.1c-0.4,2.6-0.8,5.3-1.3,7.9
						C2258.9,597.2,2258.5,597.6,2258,597.6z M2260.7,576.9C2260.7,576.9,2260.7,576.9,2260.7,576.9c-0.6,0-1-0.5-1-1.1
						c0.2-2.6,0.4-5.3,0.5-7.9c0-0.6,0.5-1,1-1c0.6,0,1,0.5,1,1c-0.1,2.6-0.3,5.3-0.5,8C2261.7,576.5,2261.3,576.9,2260.7,576.9z
						 M2261.3,556c-0.5,0-1-0.4-1-1c-0.1-2.6-0.2-5.3-0.3-7.9c0-0.6,0.4-1,0.9-1.1c0.6,0,1,0.4,1.1,0.9c0.2,2.6,0.3,5.3,0.3,8
						C2262.4,555.5,2261.9,556,2261.3,556C2261.4,556,2261.4,556,2261.3,556z M2259.9,535.2c-0.5,0-0.9-0.4-1-0.9
						c-0.3-2.6-0.7-5.3-1.1-7.8c-0.1-0.5,0.3-1.1,0.8-1.1c0.6-0.1,1.1,0.3,1.1,0.8c0.4,2.6,0.8,5.3,1.1,7.9c0.1,0.5-0.3,1-0.9,1.1
						C2259.9,535.2,2259.9,535.2,2259.9,535.2z M2256.3,514.7c-0.5,0-0.9-0.3-1-0.8c-0.6-2.6-1.2-5.1-1.9-7.7
						c-0.1-0.5,0.2-1.1,0.7-1.2c0.5-0.1,1.1,0.2,1.2,0.7c0.7,2.6,1.3,5.2,1.9,7.8c0.1,0.5-0.2,1.1-0.8,1.2
						C2256.5,514.7,2256.4,514.7,2256.3,514.7z M2250.7,494.6c-0.4,0-0.8-0.3-0.9-0.7c-0.8-2.5-1.7-5-2.6-7.5
						c-0.2-0.5,0.1-1.1,0.6-1.3s1.1,0.1,1.3,0.6c0.9,2.5,1.8,5,2.7,7.5c0.2,0.5-0.1,1.1-0.6,1.3
						C2250.9,494.6,2250.8,494.6,2250.7,494.6z M2243.1,475.2c-0.4,0-0.7-0.2-0.9-0.6c-1.1-2.4-2.2-4.8-3.4-7.1
						c-0.2-0.5,0-1.1,0.4-1.3c0.5-0.2,1.1,0,1.3,0.4c1.2,2.4,2.3,4.8,3.4,7.2c0.2,0.5,0,1.1-0.5,1.3
						C2243.4,475.1,2243.3,475.2,2243.1,475.2z M2233.6,456.6c-0.3,0-0.7-0.2-0.9-0.5c-1.3-2.3-2.7-4.5-4.1-6.7
						c-0.3-0.5-0.2-1.1,0.3-1.4c0.5-0.3,1.1-0.2,1.4,0.3c1.4,2.2,2.8,4.5,4.1,6.8c0.3,0.5,0.1,1.1-0.4,1.4
						C2233.9,456.6,2233.8,456.6,2233.6,456.6z M2222.3,439.2c-0.3,0-0.6-0.1-0.8-0.4c-1.5-2.1-3.1-4.2-4.8-6.3
						c-0.3-0.4-0.3-1.1,0.2-1.4c0.4-0.3,1.1-0.3,1.4,0.2c1.6,2.1,3.2,4.2,4.8,6.4c0.3,0.4,0.2,1.1-0.2,1.4
						C2222.7,439.1,2222.5,439.2,2222.3,439.2z M2209.2,422.9c-0.3,0-0.5-0.1-0.7-0.3c-1.7-2-3.5-3.9-5.4-5.8c-0.4-0.4-0.4-1,0-1.4
						c0.4-0.4,1-0.4,1.4,0c1.8,1.9,3.7,3.9,5.4,5.9c0.4,0.4,0.3,1-0.1,1.4C2209.7,422.8,2209.4,422.9,2209.2,422.9z M2194.6,408.1
						c-0.2,0-0.5-0.1-0.7-0.3c-1.9-1.8-3.9-3.5-5.9-5.2c-0.4-0.4-0.5-1-0.1-1.4c0.4-0.4,1-0.5,1.4-0.1c2,1.7,4,3.5,6,5.3
						c0.4,0.4,0.4,1,0.1,1.4C2195.1,408,2194.8,408.1,2194.6,408.1z M2178.5,394.8c-0.2,0-0.4-0.1-0.6-0.2c-2.1-1.6-4.3-3.1-6.4-4.6
						c-0.5-0.3-0.6-0.9-0.3-1.4c0.3-0.5,0.9-0.6,1.4-0.3c2.2,1.5,4.4,3.1,6.5,4.7c0.4,0.3,0.5,1,0.2,1.4
						C2179.1,394.6,2178.8,394.8,2178.5,394.8z M2161.2,383.1c-0.2,0-0.4,0-0.5-0.1c-2.2-1.4-4.6-2.7-6.9-4
						c-0.5-0.3-0.7-0.9-0.4-1.4c0.3-0.5,0.9-0.7,1.4-0.4c2.3,1.3,4.7,2.6,6.9,4c0.5,0.3,0.6,0.9,0.3,1.4
						C2161.9,382.9,2161.5,383.1,2161.2,383.1z M2142.8,373.3c-0.1,0-0.3,0-0.4-0.1c-2.4-1.1-4.8-2.2-7.2-3.2
						c-0.5-0.2-0.7-0.8-0.5-1.3c0.2-0.5,0.8-0.7,1.3-0.5c2.4,1,4.9,2.1,7.3,3.3c0.5,0.2,0.7,0.8,0.5,1.3
						C2143.5,373.1,2143.2,373.3,2142.8,373.3z M2123.5,365.3c-0.1,0-0.2,0-0.3-0.1c-2.5-0.9-5-1.7-7.5-2.5
						c-0.5-0.2-0.8-0.7-0.7-1.3c0.2-0.5,0.7-0.8,1.3-0.7c2.5,0.8,5.1,1.6,7.6,2.5c0.5,0.2,0.8,0.8,0.6,1.3
						C2124.3,365.1,2123.9,365.3,2123.5,365.3z M1992.6,363.2c-0.4,0-0.8-0.3-1-0.7c-0.2-0.5,0.1-1.1,0.7-1.3
						c2.5-0.8,5.1-1.6,7.7-2.2c0.5-0.1,1.1,0.2,1.2,0.7c0.1,0.5-0.2,1.1-0.7,1.2c-2.5,0.7-5.1,1.4-7.6,2.2
						C1992.8,363.1,1992.7,363.2,1992.6,363.2z M2103.5,359.4c-0.1,0-0.2,0-0.2,0c-2.6-0.6-5.2-1.2-7.7-1.7
						c-0.5-0.1-0.9-0.6-0.8-1.2c0.1-0.5,0.6-0.9,1.2-0.8c2.6,0.5,5.2,1.1,7.8,1.7c0.5,0.1,0.9,0.7,0.7,1.2
						C2104.4,359.1,2103.9,359.4,2103.5,359.4z M2012.8,357.9c-0.5,0-0.9-0.3-1-0.8c-0.1-0.5,0.2-1.1,0.8-1.2c2.6-0.5,5.2-1,7.9-1.5
						c0.5-0.1,1.1,0.3,1.2,0.8c0.1,0.5-0.3,1.1-0.8,1.2c-2.6,0.4-5.2,0.9-7.8,1.5C2013,357.9,2012.9,357.9,2012.8,357.9z
						 M2083,355.5c0,0-0.1,0-0.1,0c-2.6-0.4-5.2-0.7-7.9-0.9c-0.5-0.1-1-0.5-0.9-1.1c0.1-0.5,0.5-1,1.1-0.9c2.6,0.3,5.3,0.6,7.9,0.9
						c0.5,0.1,0.9,0.6,0.9,1.1C2083.9,355.1,2083.5,355.5,2083,355.5z M2033.4,354.7c-0.5,0-0.9-0.4-1-0.9c-0.1-0.5,0.3-1,0.9-1.1
						c2.6-0.3,5.3-0.5,8-0.7c0.6,0,1,0.4,1.1,0.9c0,0.6-0.4,1-0.9,1.1c-2.6,0.2-5.3,0.4-7.9,0.7
						C2033.5,354.7,2033.5,354.7,2033.4,354.7z M2062.2,353.7C2062.2,353.7,2062.2,353.7,2062.2,353.7c-2.4-0.1-4.8-0.1-7.1-0.1
						l-0.8,0c0,0,0,0,0,0c-0.6,0-1-0.4-1-1c0-0.6,0.4-1,1-1l0.8,0c2.4,0,4.8,0,7.2,0.1c0.6,0,1,0.5,1,1
						C2063.2,353.3,2062.7,353.7,2062.2,353.7z"/>
					<path class="st2" d="M2239.3,653c-0.2,0-0.3,0-0.4-0.1c-0.5-0.2-0.7-0.9-0.4-1.3c0.6-1.2,1.2-2.4,1.8-3.6
						c0.2-0.5,0.8-0.7,1.3-0.5c0.5,0.2,0.7,0.8,0.5,1.3c-0.6,1.2-1.2,2.4-1.8,3.6C2240.1,652.8,2239.7,653,2239.3,653z"/>
				</g>
				<g>
					<g>
						<path class="st3" d="M2186.4,647.8c0.7-0.8,0.8-2,0.2-2.9l-15.5-25.9c6.4-12.6,10.8-26.2,12.9-40.6l27.6-12.2
							c1-0.4,1.6-1.4,1.5-2.5l-3.1-36.1c-0.1-1.1-0.8-1.9-1.9-2.2l-29.2-7.3c-4.5-13.8-11.2-26.5-19.6-37.8l10.8-28.2
							c0.4-1,0.1-2.1-0.7-2.8l-27.7-23.3c-0.8-0.7-2-0.8-2.9-0.2l-25.9,15.5c-12.6-6.4-26.2-10.8-40.6-12.9l-12.2-27.6
							c-0.4-1-1.4-1.6-2.5-1.5l-36.1,3.1c-1.1,0.1-1.9,0.8-2.2,1.9l-7.3,29.2c-13.8,4.5-26.5,11.2-37.8,19.6l-28.2-10.8
							c-1-0.4-2.1-0.1-2.8,0.7l-23.3,27.7c-0.7,0.8-0.8,2-0.2,2.9l15.5,25.9c-6.4,12.6-10.8,26.2-12.9,40.6l-27.6,12.2
							c-1,0.4-1.6,1.4-1.5,2.5l3.1,36.1c0.1,1.1,0.8,1.9,1.9,2.2l29.2,7.3c4.5,13.8,11.2,26.5,19.6,37.8l-10.8,28.2
							c-0.4,1-0.1,2.1,0.7,2.8l27.7,23.3c0.8,0.7,2,0.8,2.9,0.2l25.9-15.5c12.6,6.4,26.2,10.8,40.6,12.9l12.2,27.6
							c0.4,1,1.4,1.6,2.5,1.5l36.1-3.1c1.1-0.1,1.9-0.8,2.2-1.9l7.3-29.2c13.8-4.5,26.5-11.2,37.8-19.6l28.2,10.8
							c1,0.4,2.1,0.1,2.8-0.7L2186.4,647.8z"/>
					</g>
					<linearGradient id="SVGID_2_" gradientUnits="userSpaceOnUse" x1="2020.0492" y1="559.3302" x2="2086.3291" y2="559.3302">
						<stop  offset="0" style="stop-color:#DAE3FE"/>
						<stop  offset="1" style="stop-color:#E9EFFD"/>
					</linearGradient>
					<path class="st4" d="M2053.2,592.5c-13.7,0-26.6-8.6-31.3-22.3c-6-17.3,3.2-36.2,20.5-42.2c8.4-2.9,17.4-2.4,25.3,1.5
						c8,3.9,13.9,10.6,16.8,19l0,0c6,17.3-3.2,36.2-20.5,42.2C2060.5,591.9,2056.8,592.5,2053.2,592.5z M2053.2,528.2
						c-3.4,0-6.9,0.6-10.2,1.7c-16.2,5.6-24.9,23.4-19.2,39.6c5.6,16.2,23.4,24.9,39.6,19.2c16.2-5.6,24.9-23.4,19.2-39.6
						c-2.7-7.9-8.3-14.2-15.8-17.8C2062.5,529.2,2057.9,528.2,2053.2,528.2z"/>
					<linearGradient id="SVGID_3_" gradientUnits="userSpaceOnUse" x1="1964.2251" y1="558.8905" x2="2140.8984" y2="558.8905">
						<stop  offset="0" style="stop-color:#DAE3FE"/>
						<stop  offset="1" style="stop-color:#E9EFFD"/>
					</linearGradient>
					<path class="st5" d="M2052.5,647.2c-45.3,0-84-34.8-87.9-80.8c-0.2-2.6-0.3-5.1-0.3-7.6c0-45.3,34.8-84,80.8-88
						c23.5-2,46.4,5.2,64.4,20.4c18.1,15.2,29.1,36.5,31.1,60c0.2,2.6,0.3,5.1,0.3,7.7c0,3.7-0.2,7.5-0.7,11.1
						c-0.1,0.5-0.6,0.9-1.1,0.9c-0.5-0.1-0.9-0.5-0.9-1c0,0,0-0.1,0-0.1c0.5-3.6,0.7-7.2,0.7-10.9c0-2.5-0.1-5-0.3-7.5
						c-2-23-12.8-43.8-30.4-58.7c-17.6-14.8-40-21.9-63-20c-44.9,3.9-78.9,41.7-78.9,86c0,2.5,0.1,5,0.3,7.5
						c4.1,47.4,46,82.7,93.4,78.6c15.6-1.3,30.5-6.9,43.1-16c0.4-0.3,1.1-0.2,1.4,0.2c0.1,0.2,0.2,0.4,0.2,0.6
						c0,0.3-0.1,0.6-0.4,0.8c-12.9,9.3-28.2,15-44.1,16.4C2057.6,647.1,2055,647.2,2052.5,647.2z"/>
				</g>
			</g>
			<g>
				<path class="st3" d="M1906.4,367.2l-9.8-13.8c3-7.3,4.9-15.1,5.4-23.2l14.8-8.1c0.5-0.3,0.8-0.9,0.7-1.4l-3.3-20
					c-0.1-0.6-0.6-1-1.1-1.1l-16.7-2.8c-3.1-7.5-7.4-14.3-12.6-20.2l4.8-16.2c0.2-0.6,0-1.2-0.5-1.5l-16.5-11.8
					c-0.5-0.3-1.1-0.3-1.6,0l-13.8,9.8c-7.3-3-15.1-4.9-23.2-5.4l-8.1-14.8c-0.3-0.5-0.9-0.8-1.4-0.7l-20,3.3
					c-0.6,0.1-1,0.6-1.1,1.1l-2.8,16.7c-7.5,3.1-14.3,7.4-20.2,12.6l-16.2-4.8c-0.6-0.2-1.2,0-1.5,0.5l-11.8,16.5
					c-0.3,0.5-0.3,1.1,0,1.6l9.8,13.8c-3,7.3-4.9,15.1-5.4,23.2l-14.8,8.1c-0.5,0.3-0.8,0.9-0.7,1.4l3.3,20c0.1,0.6,0.6,1,1.1,1.1
					l16.7,2.8c3.1,7.5,7.4,14.3,12.6,20.2l-4.8,16.2c-0.2,0.6,0,1.2,0.5,1.5l16.5,11.8c0.5,0.3,1.1,0.3,1.6,0l13.8-9.8
					c7.3,3,15.1,4.9,23.2,5.4l8.1,14.8c0.3,0.5,0.9,0.8,1.4,0.7l20-3.3c0.6-0.1,1-0.6,1.1-1.1l2.8-16.7c7.5-3.1,14.3-7.4,20.2-12.6
					l16.2,4.8c0.6,0.2,1.2,0,1.5-0.5l11.8-16.5C1906.7,368.4,1906.7,367.7,1906.4,367.2z"/>
			</g>
			<linearGradient id="SVGID_4_" gradientUnits="userSpaceOnUse" x1="1808.9849" y1="325.3405" x2="1847.0072" y2="325.3405">
				<stop  offset="0" style="stop-color:#DAE3FE"/>
				<stop  offset="1" style="stop-color:#E9EFFD"/>
			</linearGradient>
			<path class="st6" d="M1828,344.4c-2.3,0-4.7-0.4-6.9-1.3c-4.7-1.8-8.5-5.4-10.5-10.1c-2-4.7-2.1-9.8-0.3-14.5
				c1.8-4.7,5.4-8.5,10.1-10.5c4.7-2,9.8-2.1,14.5-0.3c4.7,1.8,8.5,5.4,10.5,10.1l0,0c4.2,9.6-0.2,20.8-9.8,25
				C1833.2,343.8,1830.6,344.4,1828,344.4z M1828,308.3c-2.3,0-4.6,0.5-6.8,1.4c-4.2,1.8-7.4,5.2-9,9.4c-1.7,4.2-1.6,8.9,0.3,13
				c1.8,4.2,5.2,7.4,9.4,9c4.2,1.7,8.9,1.6,13-0.3c8.6-3.8,12.5-13.8,8.8-22.4l0,0c-1.8-4.2-5.2-7.4-9.4-9
				C1832.2,308.7,1830.1,308.3,1828,308.3z"/>
			<g>
				<path class="st2" d="M1900.5,407.4c-0.3,0-0.5-0.1-0.7-0.3c-0.4-0.4-0.3-1,0.1-1.4c1-0.9,2-1.8,2.9-2.7c0.4-0.4,1-0.4,1.4,0
					c0.4,0.4,0.4,1,0,1.4c-1,0.9-2,1.9-3,2.7C1901,407.3,1900.7,407.4,1900.5,407.4z"/>
				<path class="st2" d="M1828,435.1c-1,0-2,0-3,0c-0.6,0-1-0.5-1-1c0-0.6,0.4-1,1-1c2.6,0.1,5.2,0.1,7.8-0.1c0.6,0,1,0.4,1,1
					c0,0.6-0.4,1-1,1C1831.3,435,1829.7,435.1,1828,435.1z M1812.3,433.9c0,0-0.1,0-0.1,0c-2.6-0.4-5.2-0.9-7.8-1.4
					c-0.5-0.1-0.9-0.7-0.8-1.2c0.1-0.5,0.7-0.9,1.2-0.8c2.5,0.6,5.1,1,7.6,1.4c0.5,0.1,0.9,0.6,0.8,1.1
					C1813.3,433.6,1812.8,433.9,1812.3,433.9z M1845.5,433.6c-0.5,0-0.9-0.3-1-0.8c-0.1-0.5,0.3-1.1,0.8-1.1
					c2.5-0.4,5.1-0.9,7.6-1.5c0.5-0.1,1.1,0.2,1.2,0.7c0.1,0.5-0.2,1.1-0.7,1.2c-2.6,0.6-5.2,1.1-7.8,1.6
					C1845.6,433.6,1845.6,433.6,1845.5,433.6z M1792.4,429c-0.1,0-0.2,0-0.3-0.1c-2.5-0.9-5-1.8-7.4-2.9c-0.5-0.2-0.7-0.8-0.5-1.3
					c0.2-0.5,0.8-0.7,1.3-0.5c2.4,1,4.8,2,7.2,2.8c0.5,0.2,0.8,0.8,0.6,1.3C1793.2,428.8,1792.8,429,1792.4,429z M1865.4,428.4
					c-0.4,0-0.8-0.3-0.9-0.7c-0.2-0.5,0.1-1.1,0.6-1.3c2-0.7,4.1-1.6,6.1-2.5c0.4-0.2,0.7-0.3,1.1-0.5c0.5-0.2,1.1,0,1.3,0.5
					c0.2,0.5,0,1.1-0.5,1.3c-0.4,0.2-0.7,0.3-1.1,0.5c-2,0.9-4.1,1.7-6.2,2.5C1865.6,428.4,1865.5,428.4,1865.4,428.4z
					 M1773.7,420.5c-0.2,0-0.3,0-0.5-0.1c-2.3-1.3-4.5-2.7-6.7-4.2c-0.5-0.3-0.6-0.9-0.3-1.4c0.3-0.5,0.9-0.6,1.4-0.3
					c2.1,1.4,4.4,2.8,6.6,4.1c0.5,0.3,0.6,0.9,0.4,1.4C1774.4,420.3,1774,420.5,1773.7,420.5z M1884,419.5c-0.3,0-0.7-0.2-0.9-0.5
					c-0.3-0.5-0.1-1.1,0.3-1.4c2.2-1.3,4.4-2.7,6.5-4.2c0.5-0.3,1.1-0.2,1.4,0.2c0.3,0.5,0.2,1.1-0.2,1.4c-2.1,1.5-4.4,3-6.6,4.3
					C1884.3,419.5,1884.1,419.5,1884,419.5z M1756.9,408.6c-0.2,0-0.5-0.1-0.7-0.2c-2-1.7-3.9-3.5-5.8-5.4c-0.4-0.4-0.4-1,0-1.4
					c0.4-0.4,1-0.4,1.4,0c1.8,1.8,3.7,3.6,5.7,5.3c0.4,0.4,0.5,1,0.1,1.4C1757.5,408.5,1757.2,408.6,1756.9,408.6z M1742.7,393.8
					c-0.3,0-0.6-0.1-0.8-0.4c-1.6-2.1-3.2-4.2-4.7-6.4c-0.3-0.5-0.2-1.1,0.3-1.4c0.5-0.3,1.1-0.2,1.4,0.3c1.4,2.1,3,4.2,4.6,6.3
					c0.3,0.4,0.3,1.1-0.2,1.4C1743.1,393.7,1742.9,393.8,1742.7,393.8z M1731.6,376.5c-0.4,0-0.7-0.2-0.9-0.5
					c-1.1-2.2-2.2-4.4-3.2-6.7l-0.2-0.5c-0.2-0.5,0-1.1,0.5-1.3c0.5-0.2,1.1,0,1.3,0.5l0.2,0.5c1,2.2,2,4.4,3.1,6.6
					c0.3,0.5,0.1,1.1-0.4,1.3C1731.9,376.5,1731.7,376.5,1731.6,376.5z M1723.8,357.5c-0.4,0-0.8-0.3-1-0.7c-0.8-2.5-1.4-5.1-2-7.7
					c-0.1-0.5,0.2-1.1,0.8-1.2c0.5-0.1,1.1,0.2,1.2,0.8c0.6,2.5,1.2,5,2,7.5c0.2,0.5-0.1,1.1-0.7,1.2
					C1724,357.5,1723.9,357.5,1723.8,357.5z M1719.8,337.3c-0.5,0-0.9-0.4-1-0.9c-0.3-2.6-0.4-5.3-0.5-7.9c0-0.6,0.4-1,1-1
					c0.6,0,1,0.4,1,1c0.1,2.6,0.2,5.2,0.5,7.8c0.1,0.5-0.3,1-0.9,1.1C1719.9,337.3,1719.8,337.3,1719.8,337.3z"/>
				<path class="st2" d="M1719.7,316.7C1719.6,316.7,1719.6,316.7,1719.7,316.7c-0.6-0.1-1-0.5-1-1.1c0.1-1.3,0.3-2.7,0.4-4
					c0.1-0.5,0.6-0.9,1.1-0.9c0.5,0.1,0.9,0.6,0.9,1.1c-0.2,1.3-0.3,2.6-0.4,3.9C1720.6,316.3,1720.2,316.7,1719.7,316.7z"/>
			</g>
			<g>
				<path class="st2" d="M1759.4,241.9c-0.3,0-0.6-0.1-0.8-0.4c-0.3-0.4-0.3-1.1,0.1-1.4c1-0.8,2.1-1.7,3.2-2.5
					c0.4-0.3,1.1-0.2,1.4,0.2c0.3,0.4,0.2,1.1-0.2,1.4c-1.1,0.8-2.1,1.6-3.1,2.4C1759.9,241.9,1759.6,241.9,1759.4,241.9z"/>
				<path class="st2" d="M1936.7,328.4C1936.7,328.4,1936.7,328.4,1936.7,328.4c-0.6,0-1-0.5-1-1c0-0.7,0-1.4,0-2.1
					c0-1.8,0-3.7-0.1-5.5c0-0.6,0.4-1,0.9-1.1c0.5,0,1,0.4,1.1,0.9c0.1,1.9,0.1,3.8,0.1,5.6c0,0.7,0,1.4,0,2.1
					C1937.7,328,1937.2,328.4,1936.7,328.4z M1935.2,308.2c-0.5,0-0.9-0.3-1-0.8c-0.4-2.5-0.9-5-1.5-7.5c-0.1-0.5,0.2-1.1,0.7-1.2
					c0.5-0.1,1.1,0.2,1.2,0.7c0.6,2.5,1.1,5.1,1.6,7.6c0.1,0.5-0.3,1.1-0.8,1.2C1935.3,308.2,1935.3,308.2,1935.2,308.2z
					 M1930,288.7c-0.4,0-0.8-0.2-0.9-0.7c-0.7-2-1.5-4-2.4-5.9c-0.2-0.4-0.4-0.8-0.5-1.2c-0.2-0.5,0-1.1,0.5-1.3
					c0.5-0.2,1.1,0,1.3,0.5c0.2,0.4,0.4,0.8,0.5,1.2c0.9,2,1.7,4,2.4,6c0.2,0.5-0.1,1.1-0.6,1.3
					C1930.2,288.7,1930.1,288.7,1930,288.7z M1921.2,270.5c-0.3,0-0.7-0.2-0.9-0.5c-1.3-2.2-2.7-4.3-4.1-6.4
					c-0.3-0.5-0.2-1.1,0.2-1.4c0.5-0.3,1.1-0.2,1.4,0.2c1.5,2.1,2.9,4.3,4.2,6.5c0.3,0.5,0.1,1.1-0.3,1.4
					C1921.6,270.4,1921.4,270.5,1921.2,270.5z M1909.3,254.1c-0.3,0-0.6-0.1-0.7-0.3c-1.7-1.9-3.5-3.8-5.3-5.5c-0.4-0.4-0.4-1,0-1.4
					c0.4-0.4,1-0.4,1.4,0c1.9,1.8,3.7,3.7,5.4,5.6c0.4,0.4,0.3,1-0.1,1.4C1909.8,254.1,1909.5,254.1,1909.3,254.1z M1894.5,240.3
					c-0.2,0-0.4-0.1-0.6-0.2c-2-1.6-4.1-3-6.2-4.5c-0.5-0.3-0.6-0.9-0.3-1.4c0.3-0.5,0.9-0.6,1.4-0.3c2.2,1.4,4.3,3,6.3,4.5
					c0.4,0.3,0.5,1,0.2,1.4C1895.1,240.2,1894.8,240.3,1894.5,240.3z M1773,232.5c-0.3,0-0.7-0.2-0.9-0.5c-0.3-0.5-0.1-1.1,0.4-1.4
					c2.2-1.3,4.5-2.5,6.9-3.7c0.5-0.2,1.1,0,1.3,0.5c0.2,0.5,0,1.1-0.5,1.3c-2.3,1.1-4.5,2.3-6.7,3.6
					C1773.3,232.5,1773.2,232.5,1773,232.5z M1877.4,229.5c-0.2,0-0.3,0-0.5-0.1c-2.3-1.2-4.6-2.2-6.9-3.2c-0.5-0.2-0.7-0.8-0.5-1.3
					c0.2-0.5,0.8-0.7,1.3-0.5c2.4,1,4.8,2.1,7.1,3.3c0.5,0.3,0.7,0.9,0.4,1.3C1878.1,229.3,1877.8,229.5,1877.4,229.5z M1791.3,224
					c-0.4,0-0.8-0.3-0.9-0.7c-0.2-0.5,0.1-1.1,0.6-1.3c2.4-0.9,4.9-1.7,7.4-2.4c0.5-0.2,1.1,0.2,1.2,0.7c0.1,0.5-0.2,1.1-0.7,1.2
					c-2.4,0.7-4.9,1.5-7.3,2.3C1791.6,224,1791.4,224,1791.3,224z M1858.6,222c-0.1,0-0.2,0-0.3,0c-2.4-0.7-4.9-1.4-7.4-1.9
					c-0.5-0.1-0.9-0.7-0.8-1.2c0.1-0.5,0.7-0.9,1.2-0.8c2.5,0.6,5.1,1.2,7.5,1.9c0.5,0.2,0.8,0.7,0.7,1.2
					C1859.5,221.8,1859.1,222,1858.6,222z M1810.9,218.9c-0.5,0-0.9-0.4-1-0.8c-0.1-0.5,0.3-1.1,0.8-1.1c2.6-0.4,5.2-0.7,7.7-1
					c0.6,0,1,0.4,1.1,0.9c0,0.6-0.4,1-0.9,1.1c-2.5,0.2-5.1,0.5-7.6,0.9C1811,218.9,1811,218.9,1810.9,218.9z M1838.8,218.1
					c0,0-0.1,0-0.1,0c-2.5-0.3-5.1-0.4-7.6-0.5c-0.6,0-1-0.5-1-1c0-0.6,0.5-1,1-1c2.6,0.1,5.2,0.2,7.8,0.5c0.5,0.1,0.9,0.5,0.9,1.1
					C1839.7,217.8,1839.3,218.1,1838.8,218.1z"/>
				<path class="st2" d="M1935.1,344.9c-0.1,0-0.1,0-0.2,0c-0.5-0.1-0.9-0.6-0.8-1.2c0.2-1.3,0.4-2.6,0.6-3.9
					c0.1-0.5,0.6-0.9,1.1-0.9c0.5,0.1,0.9,0.6,0.9,1.1c-0.2,1.3-0.4,2.7-0.6,4C1936,344.6,1935.6,344.9,1935.1,344.9z"/>
			</g>
			<linearGradient id="SVGID_5_" gradientUnits="userSpaceOnUse" x1="1777.6943" y1="325.1163" x2="1877.5698" y2="325.1163">
				<stop  offset="0" style="stop-color:#DAE3FE"/>
				<stop  offset="1" style="stop-color:#E9EFFD"/>
			</linearGradient>
			<path class="st7" d="M1827.6,375.1c-24,0-45.2-17.3-49.2-41.7c-0.5-2.8-0.7-5.5-0.7-8.2c0-24,17.3-45.2,41.7-49.2
				c13.2-2.2,26.4,0.9,37.2,8.6c10.9,7.8,18,19.3,20.2,32.4c0.5,2.7,0.7,5.5,0.7,8.3c0,0.8,0,1.5-0.1,2.3c0,0.6-0.5,1-1,1
				c-0.5,0-1-0.5-1-1c0,0,0,0,0,0c0-0.7,0.1-1.5,0.1-2.2c0-2.7-0.2-5.3-0.7-8c-1.4-8.4-4.9-16.1-10.1-22.4c0,0,0,0,0,0
				c0,0,0,0-0.1-0.1c-0.1-0.1-0.2-0.2-0.3-0.3c-0.2-0.2-0.3-0.4-0.5-0.6c-0.1-0.1-0.1-0.1-0.2-0.2c-0.7-0.8-1.5-1.7-2.3-2.4
				c-0.2-0.2-0.4-0.4-0.6-0.6c-0.3-0.3-0.6-0.5-0.8-0.8c-0.2-0.1-0.3-0.3-0.5-0.4c-1.3-1.1-2.6-2.2-4-3.2
				c-10.4-7.4-23.1-10.4-35.7-8.3c-23.4,3.9-40.1,24.3-40.1,47.3c0,2.6,0.2,5.2,0.7,7.9c4.3,26.1,29.1,43.7,55.2,39.4
				c8.6-1.4,16.6-5.1,23.2-10.7c0.4-0.4,1.1-0.3,1.4,0.1c0.2,0.2,0.2,0.4,0.2,0.6c0,0.3-0.1,0.6-0.4,0.8
				c-6.9,5.8-15.2,9.7-24.1,11.2C1833.1,374.8,1830.3,375.1,1827.6,375.1z"/>
		</g>
		<g>
			<path class="st3" d="M1744.2,1451.3c-9.2,8.3-23.9,4.5-28.1-7.2c-23-64.4-71.5-252.3,50.9-454
				c103.4-170.3,143.3-272.5,158.1-320.2c3.1-10.1,17.3-10.3,20.8-0.3C1984.1,779.7,2078,1151.1,1744.2,1451.3z"/>
			<linearGradient id="SVGID_6_" gradientUnits="userSpaceOnUse" x1="1726.9459" y1="1165.8231" x2="1894.5287" y2="1165.8231">
				<stop  offset="0" style="stop-color:#DAE3FE"/>
				<stop  offset="1" style="stop-color:#E9EFFD"/>
			</linearGradient>
			<path class="st8" d="M1728.9,1440.6c-0.1,0-0.1,0-0.2,0c-1.1-0.1-1.9-1.1-1.8-2.2c0.1-0.8,7.7-76.4,31.5-181.1
				c22-96.6,62.9-238.4,132.3-365.3c0.5-1,1.7-1.3,2.7-0.8c1,0.5,1.3,1.7,0.8,2.7c-69.2,126.5-109.9,267.9-131.9,364.2
				c-23.8,104.4-31.4,179.9-31.5,180.6C1730.8,1439.9,1730,1440.6,1728.9,1440.6z"/>
		</g>
		<g>
			<path class="st2" d="M1739.7,1467.7c90,4.9,350.3-19.7,387.3-462.3c1.1-12.6-15.2-18.4-22.3-8c-33.4,48.7-93.2,132-149.4,162.8
				c-174.3,95.3-225.5,217.6-240.2,273.6C1710.7,1450.4,1722.6,1466.8,1739.7,1467.7z"/>
			<path class="st3" d="M1729.1,1455c-0.8,0-1.5-0.4-1.8-1.2c-0.4-1,0-2.2,1-2.6c123.4-54.8,208-139.5,257.2-200.9
				c53.3-66.5,77.7-120.7,77.9-121.2c0.4-1,1.6-1.5,2.6-1c1,0.4,1.5,1.6,1,2.6c-0.2,0.5-24.8,55.2-78.5,122.1
				c-31.5,39.3-66.7,75.1-104.6,106.4c-47.4,39.1-99.3,71.3-154.1,95.7C1729.6,1455,1729.4,1455,1729.1,1455z"/>
		</g>
		<g>
			<path class="st3" d="M801.7,912.9c0,0-17.3-152.9-93.1-184c-75.8-31.1-212.7-38.3-247.8-256.3c-20.5-127.7-31.4-183.2-36.9-207.4
				c-2.1-9.4,5.3-18.3,14.9-17.8c68.2,3.4,291.2,25.2,356.7,166.3C873.2,581.1,801.7,912.9,801.7,912.9z"/>
			<linearGradient id="SVGID_7_" gradientUnits="userSpaceOnUse" x1="495.7083" y1="582.7173" x2="804.9433" y2="582.7173">
				<stop  offset="0" style="stop-color:#DAE3FE"/>
				<stop  offset="1" style="stop-color:#E9EFFD"/>
			</linearGradient>
			<path class="st9" d="M497.6,302.5c0,0,0.5,0.4,1.6,1.1c1,0.7,2.5,1.8,4.5,3.2c3.9,2.9,9.6,7.1,16.7,12.7
				c3.5,2.8,7.5,5.9,11.7,9.4c4.2,3.5,8.8,7.2,13.5,11.4c2.4,2.1,4.8,4.2,7.4,6.4c2.5,2.2,5.1,4.5,7.7,6.9c2.6,2.4,5.3,4.8,8,7.3
				c2.7,2.5,5.5,5.2,8.3,7.8c2.8,2.7,5.7,5.4,8.6,8.2c2.9,2.8,5.8,5.8,8.7,8.7c3,3,6,6,9,9c3,3.1,6,6.3,9.1,9.5
				c3.1,3.2,6.2,6.5,9.3,9.8c3.1,3.4,6.2,6.8,9.3,10.3c3.1,3.5,6.3,7,9.4,10.6c3.1,3.6,6.2,7.3,9.3,11c3.1,3.7,6.3,7.4,9.4,11.2
				c3.1,3.9,6.2,7.7,9.3,11.7c3.1,3.9,6.3,7.8,9.3,11.8c3,4.1,6,8.1,9.1,12.2c3,4.1,6.1,8.2,9.1,12.3c2.9,4.2,5.8,8.5,8.8,12.7
				c2.9,4.2,5.9,8.5,8.8,12.8l1.1,1.6l0.1,0.2l0.2,0.3l0.3,0.4l0.5,0.8l2.1,3.3l4.1,6.5c10.9,17.7,20.7,36.1,29.2,54.7
				c8.5,18.6,15.8,37.4,21.9,55.9c6.2,18.5,11.1,36.6,15.1,54c4,17.4,7.1,33.9,9.5,49.3c2.4,15.4,3.9,29.5,5,42.1
				c1.1,12.6,1.7,23.6,2,32.6c0.3,9.1,0.3,16.2,0.2,21.1c0,2.4-0.1,4.3-0.1,5.6c-0.1,1.3-0.1,1.9-0.1,1.9c0,1.2-1,2.1-2.2,2.1
				c-1.2,0-2.1-1-2.1-2.2l0-0.1c0,0,0-0.6,0-1.9c0-1.2,0-3.1,0-5.5c0-4.8-0.2-11.9-0.7-20.8c-0.4-9-1.2-19.9-2.5-32.3
				c-1.3-12.5-3.1-26.5-5.6-41.7c-2.5-15.2-5.7-31.6-9.8-48.8c-4.1-17.2-9.2-35.1-15.3-53.3c-6.1-18.2-13.3-36.8-21.7-55.1
				c-8.4-18.4-18-36.5-28.8-53.9L712,541l-2.1-3.3l-0.5-0.8l-0.3-0.4l-0.2-0.3l-1.1-1.6c-2.9-4.2-5.8-8.5-8.6-12.7
				c-2.9-4.2-5.8-8.5-8.6-12.7c-3-4.1-6-8.2-9-12.3c-3-4.1-6-8.2-8.9-12.2c-3-4-6.2-7.9-9.2-11.8c-3.1-3.9-6.1-7.8-9.1-11.7
				c-3.1-3.8-6.2-7.5-9.3-11.2c-3.1-3.7-6.1-7.4-9.2-11c-3.1-3.6-6.2-7.1-9.3-10.6c-3.1-3.5-6.1-6.9-9.1-10.4
				c-3-3.4-6.1-6.6-9.1-9.9c-3-3.2-6-6.5-8.9-9.6c-3-3.1-5.9-6.1-8.8-9.1c-2.9-3-5.8-5.9-8.6-8.8c-2.9-2.8-5.7-5.6-8.4-8.3
				c-2.8-2.7-5.4-5.4-8.1-7.9c-2.7-2.5-5.3-5-7.9-7.4c-2.6-2.4-5-4.8-7.5-7c-2.5-2.2-4.9-4.4-7.2-6.5c-4.6-4.3-9.1-8.1-13.2-11.6
				c-4.1-3.6-7.9-6.7-11.4-9.7c-6.9-5.8-12.5-10.2-16.3-13.1c-1.9-1.5-3.4-2.6-4.4-3.3c-1-0.7-1.5-1.1-1.5-1.1l0,0
				c-0.5-0.4-0.7-1.2-0.3-1.7C496.3,302.3,497.1,302.2,497.6,302.5z"/>
		</g>
		<g>
			<path class="st2" d="M873.4,1404.4c11.4,5.7-107.1-145.1-143.2-381c-17-111.2-16.5-250.3-79.4-304.3
				c-52.4-44.9-231.8-17.7-290.4-7.4c-7.3,1.3-9.9,10.5-4.2,15.4c28,23.8,87.8,79.8,103.2,136c20.2,74.1,90.3,121.6,153.2,134.6
				c62.9,13.1,97.9,25.6,128,126.5C770.7,1225.2,841.1,1388.3,873.4,1404.4z"/>
			<path class="st3" d="M442.6,744.4c0,0,1.8,0.1,5.1,0.3c3.3,0.3,8.1,0.7,14.3,1.6c6.1,0.9,13.5,2.1,21.9,3.9
				c8.4,1.8,17.8,4.2,27.9,7.4c10.1,3.2,20.9,7.3,31.9,12.3c11,5.1,22.4,11.2,33.5,18.6c11.1,7.4,21.8,16,31.7,25.9
				c9.9,9.9,18.9,21,26.6,33l2.8,4.5l1.4,2.3c0.4,0.8,0.8,1.6,1.3,2.3c1.7,3.1,3.4,6.2,5,9.4c3.1,6.3,6.1,12.6,9.2,18.8
				c3,6.3,6,12.5,8.9,18.6c2.9,6.2,5.7,12.2,8.5,18.2c2.8,6,5.4,11.9,8.1,17.7c2.6,5.8,5.1,11.5,7.5,17c4.8,11.1,9.3,21.6,13.4,31.4
				c2,4.9,3.9,9.6,5.8,14c1.8,4.5,3.4,8.7,5,12.7c3.1,8,5.8,15,7.9,20.8c2.2,5.8,3.8,10.3,4.8,13.5c1.1,3.1,1.6,4.8,1.6,4.8
				c0.2,0.4-0.1,0.9-0.5,1.1c-0.4,0.1-0.9-0.1-1.1-0.5l0,0c0,0-0.6-1.6-1.8-4.7c-1.2-3.1-2.9-7.6-5.2-13.3
				c-2.3-5.7-5.1-12.6-8.3-20.6c-3.3-7.9-7.1-16.8-11.2-26.5c-4.2-9.7-8.8-20.1-13.7-31.1c-5-11-10.3-22.6-15.8-34.5
				c-2.8-6-5.7-12-8.6-18.1c-2.9-6.1-5.9-12.3-8.9-18.5c-3.1-6.2-6.2-12.5-9.3-18.8c-1.6-3.1-3.3-6.1-4.9-9.2
				c-0.4-0.8-0.8-1.5-1.2-2.3l-1.4-2.2l-2.7-4.4c-7.4-11.8-16.2-22.7-25.9-32.4c-9.7-9.7-20.2-18.3-31-25.6
				c-10.8-7.3-21.9-13.5-32.8-18.7c-10.9-5.1-21.5-9.3-31.4-12.6c-10-3.3-19.3-5.9-27.6-7.9c-8.3-2-15.6-3.3-21.7-4.3
				c-6.1-1-10.8-1.6-14.1-1.9c-3.3-0.3-5-0.4-5-0.4c-0.4,0-0.7-0.3-0.6-0.7C441.9,744.7,442.2,744.4,442.6,744.4L442.6,744.4z"/>
		</g>
		<g>
			<path class="st3" d="M761.4,1450.7c6.5,3.4-36.5-70.5-39.7-135.6c-3.3-65.1-18-176.2-74.1-242.6
				c-56.1-66.5-117.6-72.5-195.1-12.1c-64.5,50.3-104.8,75.8-128.4,80.5c-5.8,1.2-8.8,7.8-6,13c15.1,27.9,58,92,129.9,87.4
				c91.7-5.8,202.8-65.4,236.7-15.6c33.9,49.7,29.5,77.6,30.6,101.1C716.3,1350.4,718.6,1428.1,761.4,1450.7z"/>
			<linearGradient id="SVGID_8_" gradientUnits="userSpaceOnUse" x1="478.9557" y1="1171.0044" x2="711.8319" y2="1171.0044">
				<stop  offset="0" style="stop-color:#DAE3FE"/>
				<stop  offset="1" style="stop-color:#E9EFFD"/>
			</linearGradient>
			<path class="st10" d="M479.2,1140.9c0,0,1-0.9,2.8-2.5c1.8-1.6,4.6-3.9,8.2-6.7c3.6-2.8,8-6,13.3-9.6c5.2-3.5,11.4-7.2,18.2-10.9
				c6.9-3.7,14.6-7.3,23-10.4c4.2-1.6,8.7-2.8,13.2-4c4.6-1.1,9.4-2.1,14.3-2.5c2.4-0.3,5-0.4,7.5-0.5c1.3,0,2.5,0,3.8,0l1.9,0
				l1.9,0.1c5.1,0.2,10.2,1.2,15.3,2.5c4.9,1.3,9.9,3,14.7,4.9c4.9,1.9,9.6,4.1,14.3,6.5c4.6,2.5,9.1,5.2,13.4,8.2
				c4.2,3.1,8.3,6.3,12.1,9.8c7.5,7.1,14.2,14.8,19.6,23c5.5,8.1,10,16.5,13.7,24.6c3.7,8.1,6.7,16,9.2,23.4
				c2.4,7.4,4.4,14.3,5.9,20.4c0.4,1.5,0.8,3,1.1,4.4c0.3,1.4,0.6,2.8,1,4.2c0.6,2.7,1.2,5.1,1.6,7.3c0.5,2.2,0.9,4.2,1.2,5.9
				c0.3,1.7,0.6,3.2,0.8,4.4c0.4,2.4,0.7,3.7,0.7,3.7c0.1,0.4-0.2,0.8-0.6,0.9c-0.4,0.1-0.8-0.2-0.9-0.6l0,0c0,0-0.3-1.3-0.8-3.6
				c-0.3-1.2-0.6-2.6-0.9-4.3c-0.4-1.7-0.9-3.7-1.4-5.9c-0.5-2.2-1.1-4.6-1.8-7.2c-0.3-1.3-0.7-2.7-1.1-4.1
				c-0.4-1.4-0.8-2.9-1.2-4.4c-0.8-3-1.8-6.2-2.8-9.6c-0.5-1.7-1.1-3.4-1.7-5.1c-0.3-0.9-0.6-1.8-0.9-2.7c-0.3-0.9-0.6-1.8-1-2.7
				c-2.6-7.3-5.6-15-9.4-23c-3.8-7.9-8.3-16-13.8-23.9c-5.4-7.9-11.8-15.4-19.2-22.2c-3.7-3.3-7.6-6.5-11.8-9.4
				c-4.2-2.9-8.5-5.5-13-7.9c-4.5-2.3-9.1-4.4-13.9-6.2c-4.8-1.8-9.5-3.3-14.4-4.7c-4.7-1.2-9.6-2.2-14.4-2.4l-1.8-0.1l-1.8,0
				c-1.2,0-2.4,0-3.6,0c-2.4,0.1-4.8,0.2-7.1,0.5c-4.7,0.4-9.3,1.3-13.8,2.3c-4.4,1.1-8.8,2.3-12.9,3.8c-8.3,2.8-15.9,6.2-22.8,9.7
				c-6.9,3.5-12.9,7.1-18.3,10.3c-5.3,3.3-9.8,6.4-13.5,9c-3.7,2.6-6.5,4.8-8.4,6.2c-1.9,1.5-2.9,2.3-2.9,2.3
				c-0.3,0.3-0.8,0.2-1.1-0.1C478.9,1141.7,478.9,1141.2,479.2,1140.9L479.2,1140.9z"/>
		</g>
		<g>
			<linearGradient id="SVGID_9_" gradientUnits="userSpaceOnUse" x1="2185.5278" y1="-582.4922" x2="1741.6165" y2="173.3564">
				<stop  offset="0" style="stop-color:#09005D"/>
				<stop  offset="1" style="stop-color:#1A0F91"/>
			</linearGradient>
			<rect x="775" y="629" class="st11" width="937" height="785"/>
			<g>
				<linearGradient id="SVGID_10_" gradientUnits="userSpaceOnUse" x1="996.4086" y1="1354.0948" x2="728.4085" y2="2134.0947">
					<stop  offset="0" style="stop-color:#4042E2"/>
					<stop  offset="1" style="stop-color:#4F52FF"/>
				</linearGradient>
				<path class="st12" d="M1746.9,524.3l-1006.3,6.3C727,530.7,716,540.7,716,553v150.2c0,11.8,10.6,21.4,23.7,21.5L1747,731
					c14.9,0.1,27-10,27-22.6V546.9C1774,534.4,1761.9,524.2,1746.9,524.3z"/>
				<g>
					<linearGradient id="SVGID_11_" gradientUnits="userSpaceOnUse" x1="1445.9528" y1="-247.4881" x2="1345.9528" y2="156.5113">
						<stop  offset="0" style="stop-color:#4042E2"/>
						<stop  offset="1" style="stop-color:#4F52FF"/>
					</linearGradient>
					<path class="st13" d="M1747,524.3l-1007.3,6.3c-13.1,0.1-23.8,9.7-17,15.7l1058.1-5.2C1774,534.4,1761.9,524.2,1747,524.3z"/>
					<linearGradient id="SVGID_12_" gradientUnits="userSpaceOnUse" x1="1479.1794" y1="-239.2635" x2="1379.1792" y2="164.7372">
						<stop  offset="0" style="stop-color:#4042E2"/>
						<stop  offset="1" style="stop-color:#4F52FF"/>
					</linearGradient>
					<path class="st14" d="M739.7,724.6L1747,731c14.9,0.1,27.1-10,27.1-22.6l-1058.1-5.2C715.9,714.9,726.6,724.5,739.7,724.6z"/>
				</g>
			</g>
			<g>
				<linearGradient id="SVGID_13_" gradientUnits="userSpaceOnUse" x1="1071.7129" y1="1379.9668" x2="803.7123" y2="2159.9685">
					<stop  offset="0" style="stop-color:#4042E2"/>
					<stop  offset="1" style="stop-color:#4F52FF"/>
				</linearGradient>
				<path class="st15" d="M1747.7,774.7l-1007.1-2.1c-14.1,0-25.6,10.2-25.8,22.8l-1.9,155c-0.1,12.2,10.7,22.2,24.3,22.3
					l1010.3,8.8c14.5,0.1,26.3-10,26.3-22.6V797.5C1774,785,1762.2,774.8,1747.7,774.7z"/>
				<g>
					<linearGradient id="SVGID_14_" gradientUnits="userSpaceOnUse" x1="1499.2355" y1="-234.2994" x2="1399.2355" y2="169.6998">
						<stop  offset="0" style="stop-color:#4042E2"/>
						<stop  offset="1" style="stop-color:#4F52FF"/>
					</linearGradient>
					<path class="st16" d="M1747.8,774.7l-1008-2.1c-13.6,0-24.7,9.8-24.8,21.9l1059.1,3C1774,785,1762.3,774.8,1747.8,774.7z"/>
					<linearGradient id="SVGID_15_" gradientUnits="userSpaceOnUse" x1="1535.8865" y1="-225.226" x2="1435.8861" y2="178.775">
						<stop  offset="0" style="stop-color:#4042E2"/>
						<stop  offset="1" style="stop-color:#4F52FF"/>
					</linearGradient>
					<path class="st17" d="M737.4,972.7l1010.3,8.8c14.5,0.1,26.3-10,26.3-22.6l-1061-8.5C712.9,962.6,723.8,972.6,737.4,972.7z"/>
				</g>
			</g>
			<g>
				<linearGradient id="SVGID_16_" gradientUnits="userSpaceOnUse" x1="1149.7986" y1="1406.8002" x2="881.798" y2="2186.8015">
					<stop  offset="0" style="stop-color:#4042E2"/>
					<stop  offset="1" style="stop-color:#4F52FF"/>
				</linearGradient>
				<path class="st18" d="M1748.7,1026H742.3c-14.6,0-26.3,10.4-26.3,23.5V1210c0,12.6,11.3,23,25.3,23h1007.4
					c14,0,25.3-10.4,25.3-23v-161.4C1774,1036.1,1762.7,1026,1748.7,1026z"/>
				<g>
					<linearGradient id="SVGID_17_" gradientUnits="userSpaceOnUse" x1="1558.6541" y1="-219.5917" x2="1458.6536" y2="184.4099">
						<stop  offset="0" style="stop-color:#4042E2"/>
						<stop  offset="1" style="stop-color:#4F52FF"/>
					</linearGradient>
					<path class="st19" d="M1748.7,1026H741.3c-14,0-25.4,10-25.4,23H1774C1774,1036,1762.7,1026,1748.7,1026z"/>
					<linearGradient id="SVGID_18_" gradientUnits="userSpaceOnUse" x1="1596.8259" y1="-210.1436" x2="1496.826" y2="193.8554">
						<stop  offset="0" style="stop-color:#4042E2"/>
						<stop  offset="1" style="stop-color:#4F52FF"/>
					</linearGradient>
					<path class="st20" d="M741.3,1233h1007.4c14,0,25.4-10,25.4-23H715.9C715.9,1223,727.3,1233,741.3,1233z"/>
				</g>
			</g>
			<g>
				<linearGradient id="SVGID_19_" gradientUnits="userSpaceOnUse" x1="1227.0847" y1="1433.3523" x2="959.0849" y2="2213.3516">
					<stop  offset="0" style="stop-color:#4042E2"/>
					<stop  offset="1" style="stop-color:#4F52FF"/>
				</linearGradient>
				<path class="st21" d="M1749.7,1280.8l-1006.9-3.9c-14.8-0.1-26.8,10.5-26.8,23.6v160.5c0,12.6,11.5,22.8,25.8,22.8l1007.4,0.4
					c13.8,0,25-10,25-22.4l0.4-158.5C1774.6,1290.9,1763.5,1280.8,1749.7,1280.8z"/>
				<g>
					<linearGradient id="SVGID_20_" gradientUnits="userSpaceOnUse" x1="1617.8107" y1="-204.9504" x2="1517.8107" y2="199.0491">
						<stop  offset="0" style="stop-color:#4042E2"/>
						<stop  offset="1" style="stop-color:#4F52FF"/>
					</linearGradient>
					<path class="st22" d="M1749.7,1280.8l-1008-3.9c-14.3-0.1-25.8,10.1-25.8,22.7l1058.7,3.7
						C1774.6,1290.9,1763.5,1280.8,1749.7,1280.8z"/>
					<linearGradient id="SVGID_21_" gradientUnits="userSpaceOnUse" x1="1655.4736" y1="-195.6266" x2="1555.4733" y2="208.3742">
						<stop  offset="0" style="stop-color:#4042E2"/>
						<stop  offset="1" style="stop-color:#4F52FF"/>
					</linearGradient>
					<path class="st23" d="M741.8,1483.7l1007.4,0.4c13.8,0,25-10,25-22.4l-1058.2-0.8C715.9,1473.5,727.5,1483.7,741.8,1483.7z"/>
				</g>
			</g>
		</g>
		<g>
			<g>
				<path class="st24" d="M865.6,271.8c-1.1,0-2-0.9-2-2c-0.2-11.2-3.7-66.8-52.7-78.4c-54.5-12.9-79.5,42.5-79.5,42.5
					S664,208,651.1,277.3c-42.3,10.1-53.3,65.4-25.8,92.4c4.4,4.3,10.2,6.7,16.4,6.8l264.8,2.4c7.8,0.1,14.7-5,16.9-12.5
					C931.7,338.5,942.5,273.6,865.6,271.8z"/>
				<path class="st2" d="M859.5,273c-1.1,0-2-0.9-2-2c-0.2-10.7-3.7-62.3-49.8-73.1c-51.5-12.1-75.1,39.7-75.1,39.7
					s-63.8-24.2-76,40.6c-39.6,9.4-50.2,60.1-25.1,85.5c4.4,4.5,10.4,7,16.6,7.1l249.3,2.2c7.8,0.1,14.7-5,16.9-12.5
					C922.1,333.9,931.4,274.7,859.5,273z"/>
			</g>
			<g>
				<path class="st24" d="M537.3,416.4c-0.7,0-1.2-0.5-1.2-1.2c-0.1-6.8-2.2-40.3-31.8-47.3c-32.9-7.8-48,25.7-48,25.7
					s-40.7-15.6-48.5,26.2c-25.5,6.1-32.2,39.5-15.6,55.8c2.6,2.6,6.2,4.1,9.9,4.1L562,481c4.7,0,8.9-3,10.2-7.5
					C577.2,456.6,583.7,417.4,537.3,416.4z"/>
				<path class="st2" d="M533.6,417.1c-0.7,0-1.2-0.5-1.2-1.2c-0.1-6.5-2.2-37.6-30.1-44.1c-31.1-7.3-45.4,24-45.4,24
					s-38.5-14.6-45.9,24.5c-23.9,5.7-30.3,36.3-15.2,51.6c2.7,2.7,6.3,4.2,10,4.3l150.5,1.3c4.7,0,8.9-3,10.2-7.6
					C571.4,453.8,577,418.1,533.6,417.1z"/>
			</g>
		</g>
		<g>
			<g>
				<polygon class="st3" points="1102.3,965.6 1216.6,1142.7 1159.4,1142.7 1187.7,1395.3 1029.4,1395.3 1059.5,1142.6 
					987.2,1134.4 				"/>
				<polygon class="st3" points="1369.4,1336.2 1255.2,1165.1 1312.3,1165.1 1284.1,910.5 1442.3,910.5 1412.2,1158.2 
					1484.5,1166.9 				"/>
			</g>
			<g>
				<g class="st25">
					<path class="st3" d="M853.7,1290.6c-2.2,0-4.2-1.4-4.9-3.7c-0.8-2.6-1.5-5.3-2.2-7.9c-0.7-2.7,0.9-5.5,3.6-6.3
						c2.7-0.7,5.5,0.9,6.3,3.6c0.7,2.6,1.4,5.2,2.2,7.7c0.8,2.7-0.8,5.5-3.5,6.3C854.6,1290.6,854.1,1290.6,853.7,1290.6z"/>
					<path class="st3" d="M845.4,1257.3c-2.4,0-4.5-1.7-5-4.1c-1.1-5.3-2.1-10.7-2.9-16c-0.5-2.8,1.4-5.4,4.2-5.8
						c2.8-0.5,5.4,1.4,5.8,4.2c0.8,5.2,1.8,10.5,2.9,15.6c0.6,2.8-1.2,5.4-4,6C846.1,1257.3,845.7,1257.3,845.4,1257.3z
						 M839.1,1215.6c-2.6,0-4.8-2-5.1-4.6c-0.5-5.4-1-10.8-1.3-16.2c-0.2-2.8,2-5.2,4.8-5.4c2.8-0.2,5.2,2,5.4,4.8
						c0.3,5.3,0.7,10.6,1.3,15.8c0.3,2.8-1.8,5.3-4.6,5.6C839.4,1215.5,839.2,1215.6,839.1,1215.6z M837.1,1173.4
						C837.1,1173.4,837.1,1173.4,837.1,1173.4c-2.8,0-5.1-2.3-5.1-5.1c0-5.4,0.2-10.9,0.4-16.3c0.1-2.8,2.5-5,5.3-4.9
						c2.8,0.1,5,2.5,4.9,5.3c-0.2,5.3-0.3,10.6-0.4,15.9C842.2,1171.1,839.9,1173.4,837.1,1173.4z M839.4,1131.2c-0.2,0-0.4,0-0.5,0
						c-2.8-0.3-4.8-2.8-4.5-5.6c0.6-5.4,1.2-10.8,2-16.2c0.4-2.8,3-4.7,5.8-4.3c2.8,0.4,4.7,3,4.3,5.8c-0.8,5.2-1.4,10.5-2,15.8
						C844.2,1129.2,842,1131.2,839.4,1131.2z M846,1089.5c-0.3,0-0.7,0-1.1-0.1c-2.8-0.6-4.5-3.3-3.9-6c1.1-5.3,2.3-10.6,3.7-15.9
						c0.7-2.7,3.5-4.4,6.2-3.7c2.7,0.7,4.4,3.5,3.7,6.2c-1.3,5.1-2.5,10.3-3.6,15.5C850.4,1087.8,848.3,1089.5,846,1089.5z
						 M856.7,1048.6c-0.5,0-1-0.1-1.6-0.2c-2.7-0.9-4.2-3.7-3.3-6.4c1.7-5.2,3.4-10.3,5.3-15.4c1-2.6,3.9-4,6.5-3c2.6,1,4,3.9,3,6.5
						c-1.8,5-3.5,10-5.1,15C860.9,1047.3,858.9,1048.6,856.7,1048.6z M871.7,1009.1c-0.7,0-1.4-0.1-2-0.4c-2.6-1.1-3.7-4.1-2.6-6.7
						c2.2-5,4.5-10,6.9-14.8c1.2-2.5,4.3-3.6,6.8-2.4c2.5,1.2,3.6,4.3,2.4,6.8c-2.3,4.7-4.6,9.6-6.7,14.5
						C875.5,1008,873.7,1009.1,871.7,1009.1z M890.7,971.3c-0.9,0-1.7-0.2-2.5-0.7c-2.4-1.4-3.3-4.5-1.9-6.9c2.7-4.7,5.5-9.4,8.3-14
						c1.5-2.4,4.6-3.1,7-1.6c2.4,1.5,3.1,4.6,1.6,7c-2.8,4.5-5.5,9.1-8.1,13.7C894.2,970.4,892.5,971.3,890.7,971.3z M913.4,935.6
						c-1,0-2.1-0.3-3-0.9c-2.3-1.6-2.8-4.8-1.2-7.1c3.2-4.4,6.4-8.8,9.7-13.1c1.7-2.2,4.9-2.6,7.1-0.9c2.2,1.7,2.6,4.9,0.9,7.1
						c-3.2,4.2-6.4,8.5-9.5,12.8C916.6,934.9,915,935.6,913.4,935.6z M939.7,902.5c-1.2,0-2.4-0.4-3.4-1.3c-2.1-1.9-2.3-5.1-0.5-7.2
						c3.6-4.1,7.3-8.1,11-12c1.9-2,5.2-2.1,7.2-0.2c2,1.9,2.1,5.2,0.2,7.2c-3.6,3.8-7.2,7.8-10.7,11.7
						C942.5,902,941.1,902.5,939.7,902.5z M969.2,872.3c-1.4,0-2.7-0.5-3.7-1.6c-1.9-2.1-1.8-5.3,0.3-7.2c4-3.7,8.1-7.3,12.2-10.8
						c2.1-1.8,5.4-1.6,7.2,0.6c1.8,2.1,1.6,5.4-0.6,7.2c-4,3.4-8,7-11.9,10.6C971.7,871.9,970.5,872.3,969.2,872.3z M1001.7,845.2
						c-1.5,0-3.1-0.7-4.1-2c-1.7-2.2-1.2-5.4,1-7.1c4.3-3.3,8.8-6.5,13.2-9.5c2.3-1.6,5.5-1,7.1,1.3c1.6,2.3,1,5.5-1.3,7.1
						c-4.3,3-8.7,6.1-12.9,9.3C1003.8,844.9,1002.7,845.2,1001.7,845.2z M1036.7,821.6c-1.7,0-3.4-0.9-4.4-2.5
						c-1.5-2.4-0.7-5.5,1.7-7c4.6-2.8,9.4-5.5,14.1-8.1c2.5-1.4,5.6-0.5,6.9,2c1.4,2.5,0.5,5.6-2,6.9c-4.6,2.5-9.3,5.2-13.8,7.9
						C1038.5,821.4,1037.6,821.6,1036.7,821.6z M1454.8,817.7c-0.9,0-1.7-0.2-2.5-0.7c-4.6-2.6-9.3-5.2-13.9-7.7
						c-2.5-1.3-3.4-4.4-2.1-6.9c1.3-2.5,4.4-3.4,6.9-2.1c4.8,2.5,9.6,5.2,14.3,7.9c2.4,1.4,3.3,4.5,1.9,7
						C1458.3,816.8,1456.5,817.7,1454.8,817.7z M1073.9,801.7c-1.9,0-3.7-1.1-4.6-2.9c-1.2-2.5-0.1-5.6,2.4-6.8
						c4.9-2.3,9.9-4.5,14.9-6.6c2.6-1.1,5.6,0.1,6.7,2.7c1.1,2.6-0.1,5.6-2.7,6.7c-4.8,2.1-9.7,4.2-14.5,6.5
						C1075.3,801.6,1074.6,801.7,1073.9,801.7z M1417.2,798.5c-0.7,0-1.4-0.1-2.1-0.4c-4.8-2.2-9.8-4.2-14.6-6.2
						c-2.6-1-3.9-4-2.8-6.6c1-2.6,4-3.9,6.6-2.8c5,2,10.1,4.1,15,6.4c2.6,1.1,3.7,4.2,2.6,6.7C1421,797.4,1419.1,798.5,1417.2,798.5
						z M1112.9,785.7c-2.1,0-4.1-1.3-4.8-3.4c-0.9-2.7,0.5-5.6,3.1-6.5c5.1-1.8,10.3-3.5,15.4-5.1c2.7-0.8,5.5,0.7,6.4,3.4
						c0.8,2.7-0.7,5.5-3.4,6.4c-5,1.5-10.1,3.2-15.1,4.9C1114,785.7,1113.5,785.7,1112.9,785.7z M1377.8,783.3
						c-0.5,0-1.1-0.1-1.6-0.3c-5-1.6-10.1-3.2-15.2-4.7c-2.7-0.8-4.3-3.6-3.5-6.3c0.8-2.7,3.6-4.3,6.3-3.5
						c5.2,1.5,10.5,3.1,15.6,4.8c2.7,0.9,4.1,3.8,3.3,6.4C1381.9,781.9,1379.9,783.3,1377.8,783.3z M1153.4,773.9
						c-2.3,0-4.4-1.6-5-3.9c-0.7-2.7,1-5.5,3.8-6.1c5.3-1.3,10.6-2.4,15.9-3.5c2.8-0.5,5.4,1.3,6,4c0.5,2.8-1.3,5.4-4,6
						c-5.2,1-10.4,2.2-15.5,3.4C1154.2,773.8,1153.8,773.9,1153.4,773.9z M1337,772.2c-0.4,0-0.7,0-1.1-0.1
						c-5.1-1.1-10.4-2.2-15.6-3.1c-2.8-0.5-4.6-3.1-4.1-5.9c0.5-2.8,3.1-4.6,5.9-4.1c5.3,0.9,10.7,2,16,3.2c2.7,0.6,4.5,3.3,3.9,6.1
						C1341.4,770.5,1339.3,772.2,1337,772.2z M1194.9,766.2c-2.5,0-4.7-1.9-5-4.4c-0.4-2.8,1.6-5.3,4.4-5.7
						c5.4-0.7,10.8-1.3,16.2-1.8c2.8-0.3,5.3,1.8,5.5,4.6c0.3,2.8-1.8,5.3-4.6,5.5c-5.3,0.5-10.6,1.1-15.8,1.8
						C1195.4,766.2,1195.1,766.2,1194.9,766.2z M1295.3,765.3c-0.2,0-0.4,0-0.6,0c-5.2-0.6-10.6-1.1-15.8-1.5
						c-2.8-0.2-4.9-2.6-4.7-5.5c0.2-2.8,2.7-4.9,5.5-4.7c5.4,0.4,10.9,0.9,16.2,1.5c2.8,0.3,4.8,2.8,4.5,5.6
						C1300.1,763.4,1297.9,765.3,1295.3,765.3z M1237,762.9c-2.7,0-5-2.2-5.1-5c-0.1-2.8,2.1-5.2,4.9-5.2c3.9-0.1,7.8-0.2,11.7-0.2
						c1.5,0,3.1,0,4.6,0c2.8,0,5.1,2.3,5,5.1c0,2.8-2.4,5.1-5.1,5c-1.5,0-3,0-4.5,0c-3.8,0-7.6,0.1-11.4,0.2
						C1237.1,762.9,1237.1,762.9,1237,762.9z"/>
					<path class="st3" d="M1483.9,836.2c-1,0-2-0.3-2.9-0.9c-2.2-1.5-4.4-3-6.6-4.5c-2.3-1.6-3-4.7-1.4-7.1c1.6-2.3,4.7-3,7.1-1.4
						c2.3,1.5,4.6,3.1,6.8,4.6c2.3,1.6,2.9,4.8,1.3,7.1C1487.1,835.4,1485.5,836.2,1483.9,836.2z"/>
				</g>
				<g class="st25">
					<path class="st3" d="M1654.2,1100.4c-2.4,0-4.6-1.7-5-4.2c-0.5-2.6-1-5.3-1.5-7.9c-0.6-2.8,1.2-5.4,4-6c2.8-0.6,5.4,1.2,6,4
						c0.5,2.7,1.1,5.4,1.6,8.1c0.5,2.8-1.3,5.4-4.1,5.9C1654.9,1100.4,1654.6,1100.4,1654.2,1100.4z"/>
					<path class="st3" d="M1249,1586.5C1249,1586.5,1249,1586.5,1249,1586.5c-5.6,0-11.2-0.1-16.7-0.4c-2.8-0.1-5-2.5-4.9-5.3
						c0.1-2.8,2.5-5,5.3-4.9c5.4,0.2,10.9,0.3,16.3,0.3c2.8,0,5.1,2.3,5.1,5.1C1254.1,1584.2,1251.8,1586.5,1249,1586.5z
						 M1275.8,1585.7c-2.7,0-4.9-2.1-5.1-4.8c-0.2-2.8,1.9-5.2,4.8-5.4c5.4-0.3,10.9-0.8,16.3-1.4c2.8-0.3,5.3,1.7,5.6,4.5
						c0.3,2.8-1.7,5.3-4.5,5.6c-5.5,0.6-11.1,1.1-16.7,1.4C1276.1,1585.7,1275.9,1585.7,1275.8,1585.7z M1205.6,1584.2
						c-0.2,0-0.4,0-0.5,0c-5.5-0.6-11.1-1.3-16.6-2.1c-2.8-0.4-4.7-3-4.3-5.8c0.4-2.8,3-4.7,5.8-4.3c5.4,0.8,10.8,1.5,16.2,2
						c2.8,0.3,4.8,2.8,4.5,5.6C1210.4,1582.3,1208.2,1584.2,1205.6,1584.2z M1318.9,1580.6c-2.4,0-4.6-1.8-5-4.2
						c-0.5-2.8,1.4-5.4,4.2-5.9c5.3-0.9,10.7-2,16-3.1c2.8-0.6,5.5,1.2,6,3.9c0.6,2.8-1.2,5.5-3.9,6c-5.4,1.2-11,2.2-16.4,3.2
						C1319.5,1580.6,1319.2,1580.6,1318.9,1580.6z M1162.7,1577.4c-0.4,0-0.7,0-1.1-0.1c-5.4-1.2-10.9-2.4-16.3-3.8
						c-2.7-0.7-4.4-3.5-3.7-6.2c0.7-2.7,3.5-4.4,6.2-3.7c5.3,1.3,10.6,2.6,15.9,3.7c2.8,0.6,4.5,3.3,3.9,6
						C1167.2,1575.8,1165.1,1577.4,1162.7,1577.4z M1361.3,1571c-2.2,0-4.3-1.5-4.9-3.7c-0.8-2.7,0.8-5.5,3.5-6.3
						c5.2-1.5,10.4-3.1,15.6-4.8c2.7-0.9,5.5,0.6,6.4,3.3c0.9,2.7-0.6,5.5-3.3,6.4c-5.3,1.7-10.6,3.4-16,4.9
						C1362.2,1571,1361.7,1571,1361.3,1571z M1120.8,1566.2c-0.5,0-1.1-0.1-1.6-0.3c-5.3-1.7-10.6-3.6-15.8-5.5c-2.6-1-4-3.9-3-6.5
						c1-2.6,3.9-4,6.6-3c5.1,1.9,10.3,3.7,15.4,5.4c2.7,0.9,4.1,3.7,3.3,6.4C1124.9,1564.8,1122.9,1566.2,1120.8,1566.2z
						 M1402.3,1557c-2,0-3.9-1.2-4.7-3.2c-1-2.6,0.2-5.6,2.8-6.6c5-2,10.1-4.2,15-6.4c2.6-1.2,5.6,0,6.7,2.6c1.2,2.6,0,5.6-2.6,6.7
						c-5.1,2.3-10.2,4.5-15.4,6.5C1403.6,1556.9,1402.9,1557,1402.3,1557z M1080.3,1550.5c-0.7,0-1.4-0.1-2.1-0.4
						c-5.1-2.3-10.2-4.7-15.1-7.2c-2.5-1.3-3.5-4.3-2.3-6.8c1.3-2.5,4.3-3.5,6.8-2.3c4.9,2.4,9.8,4.8,14.8,7
						c2.6,1.2,3.7,4.2,2.6,6.7C1084.1,1549.4,1082.2,1550.5,1080.3,1550.5z M1441.6,1538.8c-1.8,0-3.6-1-4.5-2.7
						c-1.3-2.5-0.4-5.6,2.1-6.9c4.8-2.5,9.6-5.2,14.3-7.9c2.4-1.4,5.5-0.6,7,1.8c1.4,2.4,0.6,5.5-1.8,7c-4.8,2.8-9.7,5.5-14.6,8.1
						C1443.2,1538.6,1442.4,1538.8,1441.6,1538.8z M1041.7,1530.6c-0.9,0-1.8-0.2-2.6-0.7c-4.8-2.8-9.6-5.7-14.3-8.7
						c-2.4-1.5-3.1-4.7-1.6-7c1.5-2.4,4.7-3.1,7-1.6c4.6,2.9,9.3,5.8,13.9,8.5c2.4,1.4,3.2,4.5,1.8,7
						C1045.1,1529.7,1043.4,1530.6,1041.7,1530.6z M1478.8,1516.5c-1.6,0-3.2-0.8-4.2-2.2c-1.6-2.3-1-5.5,1.4-7.1
						c4.5-3,9-6.2,13.4-9.4c2.3-1.7,5.5-1.2,7.1,1.1c1.7,2.3,1.2,5.5-1.1,7.1c-4.5,3.3-9.1,6.5-13.7,9.6
						C1480.8,1516.2,1479.8,1516.5,1478.8,1516.5z M1513.5,1490.4c-1.5,0-2.9-0.6-3.9-1.8c-1.8-2.2-1.5-5.4,0.6-7.2
						c4.2-3.5,8.3-7.1,12.3-10.7c2.1-1.9,5.3-1.7,7.2,0.3c1.9,2.1,1.7,5.3-0.3,7.2c-4.1,3.7-8.4,7.4-12.6,11
						C1515.8,1490,1514.6,1490.4,1513.5,1490.4z M1545.3,1460.8c-1.3,0-2.6-0.5-3.5-1.4c-2-2-2.1-5.2-0.1-7.2
						c3.8-3.9,7.5-7.9,11.1-12c1.9-2.1,5.1-2.3,7.2-0.4c2.1,1.9,2.3,5.1,0.4,7.2c-3.7,4.1-7.5,8.3-11.4,12.3
						C1547.9,1460.3,1546.6,1460.8,1545.3,1460.8z M1573.8,1428c-1.1,0-2.2-0.4-3.1-1.1c-2.2-1.7-2.6-4.9-0.9-7.1
						c3.3-4.3,6.6-8.7,9.8-13.1c1.6-2.3,4.8-2.8,7.1-1.2c2.3,1.6,2.8,4.8,1.2,7.1c-3.2,4.5-6.6,9-10.1,13.4
						C1576.8,1427.4,1575.3,1428,1573.8,1428z M1598.7,1392.4c-0.9,0-1.9-0.2-2.7-0.8c-2.4-1.5-3.1-4.6-1.6-7
						c2.9-4.6,5.7-9.3,8.4-14.1c1.4-2.4,4.5-3.3,6.9-1.9c2.4,1.4,3.3,4.5,1.9,6.9c-2.8,4.8-5.6,9.7-8.6,14.4
						C1602,1391.6,1600.4,1392.4,1598.7,1392.4z M1619.7,1354.4c-0.7,0-1.5-0.2-2.2-0.5c-2.5-1.2-3.6-4.3-2.4-6.8
						c2.4-4.9,4.7-9.9,6.8-14.9c1.1-2.6,4.1-3.8,6.7-2.6c2.6,1.1,3.8,4.1,2.6,6.7c-2.2,5.1-4.6,10.2-7,15.2
						C1623.4,1353.3,1621.6,1354.4,1619.7,1354.4z M1636.6,1314.4c-0.6,0-1.2-0.1-1.7-0.3c-2.6-1-4-3.9-3.1-6.5
						c1.8-5.1,3.6-10.3,5.2-15.5c0.8-2.7,3.7-4.2,6.4-3.3c2.7,0.8,4.2,3.7,3.3,6.4c-1.7,5.3-3.5,10.7-5.4,15.9
						C1640.6,1313.1,1638.7,1314.4,1636.6,1314.4z M1649.1,1272.8c-0.4,0-0.8,0-1.2-0.1c-2.7-0.7-4.4-3.4-3.7-6.2
						c1.3-5.3,2.5-10.6,3.6-15.9c0.6-2.8,3.2-4.5,6-4c2.8,0.6,4.5,3.2,4,6c-1.1,5.5-2.3,11-3.6,16.3
						C1653.5,1271.3,1651.4,1272.8,1649.1,1272.8z M1657.1,1230.2c-0.2,0-0.5,0-0.7,0c-2.8-0.4-4.7-2.9-4.4-5.7
						c0.7-5.4,1.4-10.8,1.9-16.2c0.3-2.8,2.7-4.9,5.6-4.6c2.8,0.3,4.9,2.8,4.6,5.6c-0.5,5.5-1.2,11.1-1.9,16.6
						C1661.8,1228.3,1659.7,1230.2,1657.1,1230.2z M1660.7,1186.9c-0.1,0-0.1,0-0.2,0c-2.8-0.1-5-2.4-4.9-5.2
						c0.1-4.2,0.2-8.4,0.2-12.5c0-1.3,0-2.5,0-3.8c0-2.8,2.2-5.1,5-5.1c2.8,0,5.1,2.2,5.1,5c0,1.3,0,2.6,0,3.9
						c0,4.3-0.1,8.6-0.2,12.9C1665.7,1184.7,1663.5,1186.9,1660.7,1186.9z M1659.8,1143.5c-2.6,0-4.9-2-5.1-4.7
						c-0.4-5.4-0.9-10.9-1.5-16.3c-0.3-2.8,1.7-5.3,4.5-5.6c2.8-0.3,5.3,1.7,5.6,4.5c0.6,5.5,1.2,11.1,1.6,16.7
						c0.2,2.8-1.9,5.2-4.7,5.5C1660,1143.5,1659.9,1143.5,1659.8,1143.5z"/>
					<path class="st3" d="M1005.2,1506.7c-1,0-2.1-0.3-3-1c-2.2-1.6-4.4-3.3-6.6-5c-2.2-1.7-2.7-4.9-0.9-7.1
						c1.7-2.2,4.9-2.7,7.1-0.9c2.1,1.6,4.3,3.2,6.4,4.8c2.3,1.7,2.8,4.9,1.1,7.1C1008.3,1505.9,1006.8,1506.7,1005.2,1506.7z"/>
				</g>
			</g>
		</g>
		<g>
			<linearGradient id="SVGID_22_" gradientUnits="userSpaceOnUse" x1="1484.9647" y1="-320.5467" x2="1368.9646" y2="23.4532">
				<stop  offset="0" style="stop-color:#E1473D"/>
				<stop  offset="1" style="stop-color:#E9605A"/>
			</linearGradient>
			<path class="st26" d="M873.7,252.8c-21.3-0.3-38.3,17.8-36.8,39l37.2,516.6c1.4,19.2,17.4,33.9,36.6,33.8l602.2-4.1
				c19.6-0.1,35.5-15.7,36.2-35.3l16.2-504.8c0.7-20.4-15.6-37.4-36-37.6L873.7,252.8z"/>
			<linearGradient id="SVGID_23_" gradientUnits="userSpaceOnUse" x1="1127.5372" y1="751.2424" x2="1439.5385" y2="-104.7603">
				<stop  offset="0" style="stop-color:#FE7062"/>
				<stop  offset="1" style="stop-color:#FF928E"/>
			</linearGradient>
			<path class="st27" d="M899,330.6c-12.1-0.3-21.7,9.9-20.9,22l31.1,440.3c0.8,10.8,9.8,19.1,20.6,19.1l559.1-2.9
				c11.2-0.1,20.3-9.1,20.4-20.3l3.6-425c0.1-11.2-8.9-20.5-20.1-20.7L899,330.6z"/>
			<path class="st28" d="M877.3,295.2L877.3,295.2c0.4,8.3,7.2,14.7,15.5,14.7l225.3-0.2c8.6,0,15.5-6.9,15.5-15.5v-5.9
				c0-8.7-7.2-15.7-15.9-15.5l-225.3,6.1C883.7,279.1,876.9,286.5,877.3,295.2z"/>
			<path class="st28" d="M1092.2,354.9h3.6c3.1,0,5.7,2.5,5.8,5.7l7.6,434.4c0.1,3.2-2.5,5.9-5.8,5.9l0,0c-3.1,0-5.7-2.5-5.8-5.6
				l-11.2-434.4C1086.4,357.6,1089,354.9,1092.2,354.9z"/>
			<g class="st29">
				<path class="st0" d="M918.4,382.6l128.1,1.1c5.4,0,9.7,4.4,9.7,9.8v0c0,5.5-4.4,9.9-9.9,9.8l-128.1-0.8c-4.5,0-8.5-3.2-9.5-7.6
					l-0.1-0.2C907.3,388.5,912,382.6,918.4,382.6z"/>
				<path class="st0" d="M950,419.5c24.6,0.6,75.3,1.4,96.5,1.7c5.4,0.1,9.7,4.5,9.7,9.8v1.4c0,5.4-4.4,9.8-9.8,9.8h-95.6
					c-4.3,0-8-2.8-9.4-6.8l-1-3.1C938.4,425.9,943.3,419.3,950,419.5z"/>
				<path class="st0" d="M947.9,462.3v1.6c0,5.1,4.2,9.3,9.3,9.3h88c5,0,9.1-4.1,9.1-9.1l0,0c0-5.1-4.1-9.2-9.2-9.2h-89.8
					C951.2,455,947.9,458.3,947.9,462.3z"/>
			</g>
		</g>
		<g>
			<path class="st28" d="M1268.3,634.6c2.1-2.9,1.5-6.9-1.4-9l-95.3-69.8l95.6-77.6c2.8-2.2,3.2-6.3,0.9-9.1
				c-2.2-2.8-6.3-3.2-9.1-0.9L1157,551c-1.6,1.3-2.4,3.2-2.4,5.2c0,2,1,3.9,2.6,5l102,74.8c1.1,0.8,2.5,1.2,3.8,1.2
				C1265.1,637.3,1267.1,636.4,1268.3,634.6z"/>
			<path class="st28" d="M1468.9,561.2c1.6-1.2,2.6-3,2.6-5c0-2-0.8-3.9-2.4-5.2l-102-82.8c-2.8-2.2-6.8-1.8-9.1,0.9
				c-2.2,2.8-1.8,6.8,0.9,9.1l95.6,77.6l-95.3,69.8c-2.9,2.1-3.5,6.1-1.4,9c1.3,1.7,3.2,2.6,5.2,2.6c1.3,0,2.7-0.4,3.8-1.2
				L1468.9,561.2z"/>
			<path class="st28" d="M1331.2,449.9c-3.5-0.7-6.9,1.6-7.5,5.1l-37.7,200.3c-0.7,3.5,1.6,6.9,5.1,7.5c0.8,0.2,1.6,0.1,2.3,0
				c2.5-0.5,4.7-2.5,5.2-5.2l37.7-200.3C1337,453.9,1334.7,450.6,1331.2,449.9z"/>
		</g>
		<g>
			<polygon class="st24" points="1791.3,488.7 1782.1,522 1763.5,501.5 			"/>
			<path class="st2" d="M1646.7,428.5l68.3,103.6c1.3,2,3.4,3.3,5.7,3.8c2.3,0.4,4.7-0.1,6.7-1.5l101.4-72.5
				c1.2-0.8,1.7-2.3,1.4-3.7c-0.3-1.4-1.5-2.4-2.9-2.6L1646.7,428.5z"/>
			<polygon class="st24" points="1791.2,488.7 1646.7,428.5 1774.9,500.5 1772.8,509.8 			"/>
			<polygon class="st24" points="1765.2,507.4 1782.1,522 1774.9,500.5 			"/>
		</g>
	</g>
</g>
</svg>
