<?xml version="1.0" encoding="utf-8"?>
<!-- Generator: Adobe Illustrator 25.2.0, SVG Export Plug-In . SVG Version: 6.00 Build 0)  -->
<svg version="1.1" xmlns="http://www.w3.org/2000/svg" xmlns:xlink="http://www.w3.org/1999/xlink" x="0px" y="0px"
	 viewBox="0 0 3710 3710" style="enable-background:new 0 0 3710 3710;" xml:space="preserve">
<style type="text/css">
	.st0{fill:#FFFFFF;}
	.st1{fill:url(#SVGID_1_);}
	.st2{fill:#BDD0FB;}
	.st3{fill:#91B3FA;}
	.st4{fill:url(#SVGID_2_);}
	.st5{fill:url(#SVGID_3_);}
	.st6{opacity:0.42;fill:#FFFFFF;}
	.st7{opacity:0.55;fill:#FFFFFF;}
	.st8{opacity:0.28;fill:#FFFFFF;}
	.st9{fill:url(#SVGID_4_);}
	.st10{opacity:0.3;}
	.st11{fill:url(#SVGID_5_);}
	.st12{fill:url(#SVGID_6_);}
	.st13{fill:url(#SVGID_7_);}
	.st14{fill:url(#SVGID_8_);}
	.st15{fill:url(#SVGID_9_);}
	.st16{fill:url(#SVGID_10_);}
	.st17{opacity:0.5;fill:#FFFFFF;}
	.st18{fill:url(#SVGID_11_);}
	.st19{fill:url(#SVGID_12_);}
	.st20{fill:url(#SVGID_13_);}
	.st21{fill:url(#SVGID_14_);}
	.st22{fill:url(#SVGID_15_);}
</style>
<g id="Background">
	<g>
		<g>
			<rect class="st0" width="3710" height="3710"/>
		</g>
	</g>
</g>
<g id="Illustration">
	<g>
		<linearGradient id="SVGID_1_" gradientUnits="userSpaceOnUse" x1="3586.3577" y1="4054.3235" x2="1113.4935" y2="983.1815">
			<stop  offset="0" style="stop-color:#DAE3FE"/>
			<stop  offset="1" style="stop-color:#E9EFFD"/>
		</linearGradient>
		<path class="st1" d="M2906.1,2843.2c-56.8,59.8-110.5,98.4-153,128.8c-499.1,358.1-1089.7,253.7-1215.3,228.2
			c-185.4-37.6-543.6-110.4-802.7-415C343.2,2324.3,404.2,1598.3,708.2,1119c55.6-87.7,349.3-574.3,946.3-652.3
			c361.3-47.2,782.4,48,1087.4,303.5C3382.1,1306.5,3336.5,2390,2906.1,2843.2z"/>
		<g>
			<path class="st2" d="M548.6,639.9c-1.6-11.2,14.6-17.1,23.3-8.5c88.8,86.9,297.9,341.9,202.2,744.4
				C654,1880.8,760,2079.1,903,2207.4c0,0-206-73.3-321.1-275.2C299.5,1436.4,576.2,839.6,548.6,639.9z"/>
			<path class="st0" d="M606.8,806.6c6.7,58.1,12.1,116.2,15,174.4c3.3,58.2,4.5,116.3,3.6,174.4c-1.1,58.1-3.5,116.1-8.8,173.8
				c-4.9,57.8-12.7,115.2-20.8,172.9c-7.7,57.7-15.8,115.7-17.1,174.9c-1.3,59,5.5,119.3,24.8,177c4.8,14.4,10,28.8,16,42.7
				c5.8,14.1,12.3,28,19,41.8c13.7,27.5,29.5,54.4,47.5,80.1c36.2,51.4,81.2,98.3,131.8,139.1c5.3,4.3,13.6,4.1,18.4-0.4
				c4.7-4.4,4.4-11.4-0.6-15.7l0,0c-12-10.2-23.8-20.5-35.1-31.3c-5.7-5.3-11.2-10.8-16.8-16.2c-5.3-5.6-10.9-11-16.1-16.7
				c-21-22.5-40.2-46.3-57.3-71.1c-34.4-49.4-60.7-103.4-79.2-158.5c-8.9-27.6-15.5-55.8-19.5-84.1c-4-28.4-5.6-57-5.2-85.7
				c0.7-57.4,8.2-115,15.4-172.7c7.1-57.8,13.8-115.9,17.7-174.2c2-29.1,3.5-58.3,4.3-87.5c0.5-14.6,0.7-29.2,0.9-43.8
				c0.1-14.6,0-29.2-0.2-43.8c-0.8-58.5-3.7-116.9-8.7-175.3c-5.3-58.3-12.4-116.6-22.1-174.6c-0.3-1.7-2-2.8-4-2.6
				C607.9,803.6,606.6,805,606.8,806.6z"/>
		</g>
		<g>
			<g>
				<path class="st3" d="M618.8,1867c-13,11.4-33.3,5.9-39-10.4c-31-90-95.8-352.5,77.8-631.6c146.6-235.7,203.7-377.5,225.2-443.6
					c4.5-14,24.3-14.1,28.9-0.1C963.1,935.1,1088.2,1453.9,618.8,1867z"/>
				<path class="st0" d="M598.2,1855.9c-0.4,0-0.9,0-1.3,0c-3.7-0.4-6.4-3.7-6-7.4c0.5-4.2,47.9-423.2,237-760.1
					c1.8-3.2,5.9-4.4,9.2-2.6c3.2,1.8,4.4,5.9,2.6,9.2c-187.7,334.5-234.9,750.8-235.3,755C604,1853.1,601.4,1855.6,598.2,1855.9z"
					/>
			</g>
		</g>
		<g>
			<linearGradient id="SVGID_2_" gradientUnits="userSpaceOnUse" x1="1657.3458" y1="2557.356" x2="2234.5637" y2="825.6971">
				<stop  offset="0" style="stop-color:#09005D"/>
				<stop  offset="1" style="stop-color:#1A0F91"/>
			</linearGradient>
			<path class="st4" d="M3147.8,2620.2c0,24.8-20.3,45.2-45.2,45.2h-2444c-24.9,0-45.2-20.3-45.2-45.2L593,1215.7
				c0-24.8,29.3-73.3,82.9-69.7l2388.5-61.8c31.2-0.8,61.3,11.2,83.4,33.2c22.1,22,34.2,52.1,33.4,83.3L3147.8,2620.2z"/>
			<path class="st3" d="M3103.1,2576.9c0,23.5-19.2,42.8-42.8,42.8H717.5c-23.5,0-42.8-19.2-42.8-42.8l-19.2-1275
				c2.3-76.7,69.5-104.3,110.3-102.7l2289.3-61.4c21.9-0.6,43.1,7.8,58.6,23.3c15.5,15.5,24,36.7,23.4,58.6L3103.1,2576.9z"/>
			<g>
				<path class="st0" d="M700.1,1968.9c-2.2,0-4-1.8-4-4l-1.5-103.4c0-2.2,1.7-4.1,4-4.1c2.2-0.1,4.1,1.7,4.1,4l1.5,103.4
					C704.1,1967,702.4,1968.9,700.1,1968.9C700.1,1968.9,700.1,1968.9,700.1,1968.9z"/>
				<path class="st0" d="M696.4,1715.5c-2.2,0-4-1.8-4-4l-5.8-396c0.1-26.6,8.3-47.9,24.4-63.3c29.2-28,74.8-26.6,76.8-26.5
					l731-19.6c2.2-0.2,4.1,1.7,4.1,3.9c0.1,2.2-1.7,4.1-3.9,4.1l-731.2,19.6c-2.1-0.1-44.4-1.4-71.2,24.3
					c-14.4,13.8-21.8,33.1-21.9,57.4l5.8,395.9C700.4,1713.6,698.6,1715.5,696.4,1715.5C696.4,1715.5,696.4,1715.5,696.4,1715.5z"/>
			</g>
			<linearGradient id="SVGID_3_" gradientUnits="userSpaceOnUse" x1="1755.4028" y1="3294.489" x2="1967.4454" y2="2135.0911">
				<stop  offset="0" style="stop-color:#09005D"/>
				<stop  offset="1" style="stop-color:#1A0F91"/>
			</linearGradient>
			<path class="st5" d="M3196.4,2781.9h-2672c-32.9,0-59.8-27.8-59.8-61.7l0,0c0-33.9,26.9-61.7,59.8-61.7h2672
				c32.9,0,59.8,27.8,59.8,61.7l0,0C3256.2,2754.2,3229.3,2781.9,3196.4,2781.9z"/>
		</g>
		<g>
			<path class="st6" d="M3026.6,1511.1l-2261.8,15.3c-22.5,0.2-40.9-13.8-40.9-31v-194c0-16.7,17.2-30.3,39-31l2261.8-65.2
				c23-0.7,42.1,13.4,42.1,31v243.9C3066.8,1497.1,3048.9,1511,3026.6,1511.1z"/>
			<path class="st7" d="M2289.4,2380.2h-786c-15.6,0-28.2-12.6-28.2-28.2v-728.7c0-15.6,12.6-28.2,28.2-28.2h778.1
				c11.4,0,20.6,9.2,20.6,20.6v751.9C2302,2374.5,2296.3,2380.2,2289.4,2380.2z"/>
			<path class="st8" d="M2312.6,2512.8c-1.3,24.5-21.4,43.7-45.9,43.8l-1524.8,9.6c-18.9-0.2-34.1-15.5-34.1-34.4v-55
				c0-26.3,21.3-47.6,47.6-47.6h1542.3c10.1,0,18.4,8.2,18.4,18.4L2312.6,2512.8z"/>
			<path class="st7" d="M1401.7,2362H733.2c-14,0-25.4-11.4-25.4-25.4v-738.5c0-14,11.4-25.4,25.4-25.4h668.4
				c14,0,25.4,11.4,25.4,25.4v738.5C1427.1,2350.7,1415.7,2362,1401.7,2362z"/>
			<path class="st7" d="M3042.3,2567.6h-672c-7.4,0-13.4-6-13.4-13.4v-948.7c0-22.3,18.1-40.4,40.4-40.4H3046c5.5,0,10,4.5,10,10
				v978.9C3055.9,2561.4,3049.8,2567.6,3042.3,2567.6z"/>
		</g>
		<g>
			<g>
				<g>
					<linearGradient id="SVGID_4_" gradientUnits="userSpaceOnUse" x1="2104.0071" y1="1255.1464" x2="1002.4528" y2="2255.6401">
						<stop  offset="0" style="stop-color:#4F52FF"/>
						<stop  offset="1" style="stop-color:#4042E2"/>
					</linearGradient>
					<path class="st9" d="M1840.1,1533.8l-738-6.6c-14.5-0.1-26.2,11.6-26.2,26.1l3.2,566.3c0.1,14.6,12.1,26.2,26.7,25.8
						c133.4-4,725.8-21.5,752-20.4c25.8,1.1,11.8-453.8,7.9-566.1C1865.3,1545,1854,1534,1840.1,1533.8z"/>
					<path class="st0" d="M1105.2,2124.1c-2.6,0-4.7-2.1-4.7-4.6l-3.2-566.3c0-1.3,0.5-2.4,1.4-3.3c0.9-0.9,2-1.4,3.3-1.4l738,6.6
						c2.5,0,4.5,2,4.6,4.5c9.5,277.5,9.7,490.5,0.5,542.7l-0.2,1.4l-1.4,0C1745.2,2105.1,1211.3,2120.9,1105.2,2124.1l0.1,0
						L1105.2,2124.1z M1102,1551.9c-0.4,0-0.7,0.1-0.9,0.4c-0.3,0.3-0.4,0.5-0.4,0.9l3.2,566.3c0,0.7,0.6,1.3,1.3,1.3l0.1,1.7l0-1.7
						c105.5-3.1,635-18.9,736.8-20.4c9-54.2,8.7-265.7-0.8-540.6c0-0.7-0.6-1.2-1.3-1.2L1102,1551.9z"/>
				</g>
				<path class="st0" d="M1751.1,2051.2h-483.7c-15.1,0-24.4-16.4-16.8-29.3l191.5-325.6c8-13.6,28-12.5,34.5,1.8l92.5,202.6
					c5.5,12,21.1,15.2,30.9,6.3l37.4-34.3c8.7-8,22.4-6.4,29.1,3.2l100.6,144.7C1776,2033.5,1766.8,2051.2,1751.1,2051.2z"/>
				
					<ellipse transform="matrix(0.5847 -0.8112 0.8112 0.5847 -839.0945 1733.8054)" class="st0" cx="1273.9" cy="1686.5" rx="69.5" ry="69.5"/>
			</g>
		</g>
		<g>
			<circle class="st0" cx="2198.4" cy="2093.4" r="278.9"/>
			<g>
				<path class="st3" d="M1948.5,2078.6l63.6-33.2v14.1c0,1.1-0.3,2.1-0.8,2.9c-0.5,0.9-1.4,1.6-2.7,2.3l-29.2,14.9
					c-1.2,0.6-2.5,1.2-3.9,1.6c-1.4,0.5-2.8,0.9-4.4,1.2c1.6,0.4,3,0.8,4.4,1.2c1.4,0.5,2.7,1,3.9,1.6l29.2,15
					c1.2,0.6,2.1,1.4,2.7,2.3c0.5,0.9,0.8,1.9,0.8,2.9v14.1l-63.6-33.3V2078.6z"/>
				<path class="st3" d="M2041.1,2136.7v-119.4h19.8v45.9c3.2-3.1,6.7-5.5,10.6-7.4c3.9-1.9,8.4-2.8,13.6-2.8c4.5,0,8.5,0.8,12,2.3
					c3.5,1.5,6.4,3.7,8.7,6.4c2.3,2.8,4.1,6.1,5.3,9.9c1.2,3.8,1.8,8,1.8,12.7v52.5h-19.8v-52.5c0-5-1.2-8.9-3.5-11.7
					c-2.3-2.8-5.8-4.1-10.5-4.1c-3.4,0-6.6,0.8-9.6,2.3c-3,1.6-5.8,3.7-8.5,6.3v59.6H2041.1z"/>
				<path class="st3" d="M2159.5,2138c-7.1,0-12.6-2-16.5-6.1c-3.9-4-5.8-9.6-5.8-16.7v-46h-8.4c-1.1,0-2-0.3-2.8-1
					c-0.8-0.7-1.2-1.7-1.2-3.1v-7.9l13.3-2.2l4.2-22.5c0.2-1.1,0.7-1.9,1.5-2.5c0.8-0.6,1.8-0.9,2.9-0.9h10.3v25.9h21.7v14.1h-21.7
					v44.7c0,2.6,0.6,4.6,1.9,6s3,2.2,5.1,2.2c1.2,0,2.3-0.1,3.1-0.4c0.8-0.3,1.6-0.6,2.2-0.9c0.6-0.3,1.2-0.6,1.6-0.9
					c0.5-0.3,1-0.4,1.4-0.4c0.6,0,1.1,0.1,1.4,0.4c0.4,0.3,0.8,0.7,1.2,1.3l5.9,9.6c-2.9,2.4-6.2,4.2-10,5.5
					C2167.4,2137.4,2163.5,2138,2159.5,2138z"/>
				<path class="st3" d="M2194.6,2136.7v-82.4h12.1c2.6,0,4.3,1.2,5.1,3.6l1.3,6.1c1.4-1.6,3-3.1,4.5-4.4c1.6-1.3,3.3-2.5,5.1-3.5
					c1.8-1,3.7-1.7,5.8-2.3c2.1-0.6,4.3-0.8,6.8-0.8c5.2,0,9.5,1.4,12.8,4.2c3.3,2.8,5.9,6.5,7.5,11.2c1.3-2.7,2.9-5.1,4.8-7
					c1.9-2,4-3.5,6.3-4.8c2.3-1.2,4.8-2.1,7.4-2.7c2.6-0.6,5.2-0.9,7.8-0.9c4.6,0,8.6,0.7,12.1,2.1c3.5,1.4,6.5,3.4,8.9,6.1
					c2.4,2.7,4.2,5.9,5.5,9.8c1.3,3.9,1.9,8.3,1.9,13.3v52.5h-19.8v-52.5c0-5.2-1.2-9.2-3.5-11.8c-2.3-2.7-5.7-4-10.1-4
					c-2,0-3.9,0.4-5.7,1c-1.7,0.7-3.3,1.7-4.6,3c-1.3,1.3-2.3,3-3.1,4.9c-0.8,2-1.1,4.3-1.1,6.8v52.5h-19.9v-52.5
					c0-5.5-1.1-9.5-3.3-12c-2.2-2.5-5.5-3.8-9.8-3.8c-2.8,0-5.5,0.7-8,2.1c-2.5,1.4-4.8,3.4-6.9,5.8v60.3H2194.6z"/>
				<path class="st3" d="M2351,2017.4v119.4h-19.8v-119.4H2351z"/>
				<path class="st3" d="M2381.2,2119.9v-14.1c0-1.1,0.3-2,0.8-2.9c0.5-0.9,1.4-1.6,2.7-2.3l29.2-15c2.4-1.2,5.1-2.1,8.3-2.9
					c-1.6-0.4-3-0.8-4.4-1.2c-1.4-0.5-2.7-1-3.9-1.6l-29.2-14.9c-1.2-0.6-2.1-1.4-2.7-2.3c-0.5-0.9-0.8-1.9-0.8-2.9v-14.1l63.6,33.2
					v8L2381.2,2119.9z"/>
			</g>
		</g>
		<g>
			<circle class="st0" cx="2954.4" cy="1595.1" r="215.6"/>
			<g>
				<path class="st3" d="M2823.5,1635l-46.5-28.8v-10.3l46.5-28.6v14.8l-32.1,18.9l32.1,19.1V1635z"/>
				<path class="st3" d="M2904.4,1566.6c-5.1,0-9.2,3-12.2,9c-3,6-4.5,14.4-4.5,25.1c0,22.3,5.8,33.5,17.5,33.5
					c5.1,0,10.4-1.6,16-4.9v16c-4.7,3.1-10.7,4.7-18.1,4.7c-10.9,0-19.2-4.3-25-13c-5.8-8.6-8.7-20.8-8.7-36.4c0-15.7,3-27.9,9-36.6
					c6-8.8,14.3-13.1,25-13.1c3.5,0,6.9,0.5,10.1,1.5c3.2,1,6.7,2.7,10.4,5.1l-5.9,14.6c-2-1.4-4.1-2.6-6.3-3.7
					C2909.5,1567.2,2907.1,1566.6,2904.4,1566.6z"/>
				<path class="st3" d="M2978.9,1622.2c0,9-2.3,15.9-6.8,20.7c-4.6,4.8-11.1,7.2-19.7,7.2c-8.4,0-15.5-1.6-21.4-4.9v-17.7
					c7.2,4.7,13.8,7.1,19.9,7.1c3.4,0,6-0.9,7.7-2.8c1.7-1.9,2.6-4.5,2.6-7.7c0-3.2-1-6.1-3.1-8.8c-2.1-2.7-5.5-5.6-10.2-8.9
					c-4.1-2.9-7.3-5.6-9.4-8.2c-2.1-2.6-3.8-5.6-4.9-8.8c-1.2-3.3-1.7-7-1.7-11.3c0-8.3,2.3-14.8,6.9-19.7
					c4.6-4.8,10.8-7.3,18.5-7.3c7.4,0,14.5,2.1,21.3,6.2l-5.9,14.4c-2.1-1.2-4.3-2.3-6.6-3.3c-2.3-1-4.8-1.5-7.4-1.5
					c-2.9,0-5.1,1-6.7,2.9c-1.6,1.9-2.3,4.5-2.3,7.8c0,3.3,0.9,6.1,2.8,8.5c1.9,2.4,5.1,5.2,9.8,8.2c6.3,4.2,10.7,8.5,13.2,12.9
					C2977.7,1611.5,2978.9,1616.6,2978.9,1622.2z"/>
				<path class="st3" d="M3034.7,1622.2c0,9-2.3,15.9-6.8,20.7c-4.6,4.8-11.1,7.2-19.7,7.2c-8.4,0-15.5-1.6-21.4-4.9v-17.7
					c7.2,4.7,13.8,7.1,19.9,7.1c3.4,0,6-0.9,7.7-2.8c1.7-1.9,2.6-4.5,2.6-7.7c0-3.2-1-6.1-3.1-8.8c-2.1-2.7-5.5-5.6-10.2-8.9
					c-4.1-2.9-7.3-5.6-9.4-8.2c-2.1-2.6-3.8-5.6-4.9-8.8c-1.2-3.3-1.7-7-1.7-11.3c0-8.3,2.3-14.8,6.9-19.7
					c4.6-4.8,10.8-7.3,18.5-7.3c7.4,0,14.5,2.1,21.3,6.2l-5.9,14.4c-2.1-1.2-4.3-2.3-6.6-3.3c-2.3-1-4.8-1.5-7.4-1.5
					c-2.9,0-5.1,1-6.7,2.9c-1.6,1.9-2.3,4.5-2.3,7.8c0,3.3,0.9,6.1,2.8,8.5c1.9,2.4,5.1,5.2,9.8,8.2c6.3,4.2,10.7,8.5,13.2,12.9
					C3033.5,1611.5,3034.7,1616.6,3034.7,1622.2z"/>
				<path class="st3" d="M3078.5,1620.1l32.3-19.1l-32.3-18.9v-14.8l46.5,28.6v10.3l-46.5,28.8V1620.1z"/>
			</g>
		</g>
		<g>
			
				<ellipse transform="matrix(0.7071 -0.7071 0.7071 0.7071 -439.1622 2241.0403)" class="st0" cx="2485.6" cy="1650.6" rx="157.2" ry="157.2"/>
			<g>
				<path class="st3" d="M2402.5,1650.9l45.4-23.7v10.1c0,0.8-0.2,1.5-0.6,2.1c-0.4,0.6-1,1.2-1.9,1.6l-20.8,10.7
					c-0.9,0.5-1.8,0.9-2.8,1.2c-1,0.3-2,0.6-3.1,0.9c1.1,0.3,2.2,0.6,3.1,0.9c1,0.3,1.9,0.7,2.8,1.2l20.8,10.7
					c0.9,0.5,1.5,1,1.9,1.6c0.4,0.6,0.6,1.3,0.6,2.1v10.1l-45.4-23.7V1650.9z"/>
				<path class="st3" d="M2473.6,1692.6c-0.3,0.9-0.8,1.6-1.3,2.3c-0.5,0.6-1.1,1.2-1.8,1.6c-0.7,0.4-1.4,0.8-2.2,1
					c-0.8,0.2-1.5,0.3-2.2,0.3h-6l33.5-85.7c0.6-1.6,1.6-2.8,2.8-3.7c1.2-0.9,2.7-1.3,4.4-1.3h6L2473.6,1692.6z"/>
				<path class="st3" d="M2518.6,1680.4v-10.1c0-0.8,0.2-1.5,0.6-2.1c0.4-0.6,1-1.2,1.9-1.6l20.8-10.7c1.7-0.8,3.6-1.5,5.9-2.1
					c-1.1-0.3-2.2-0.6-3.1-0.9c-1-0.3-1.9-0.7-2.8-1.2L2521,1641c-0.9-0.5-1.5-1-1.9-1.6c-0.4-0.6-0.6-1.3-0.6-2.1v-10.1l45.4,23.7
					v5.7L2518.6,1680.4z"/>
			</g>
		</g>
		<g>
			<g>
				<g class="st10">
					<linearGradient id="SVGID_5_" gradientUnits="userSpaceOnUse" x1="3424.7104" y1="86.6055" x2="1383.1902" y2="1986.6334">
						<stop  offset="0" style="stop-color:#FF928E"/>
						<stop  offset="1" style="stop-color:#FE7062"/>
					</linearGradient>
					<path class="st11" d="M2318.2,979.8c-5.3-1.6-8.7-6.9-7.7-12.5c2.2-12.2,5-24.5,8.3-36.6c1.6-5.9,7.6-9.3,13.5-7.7
						c0.1,0,0.1,0,0.2,0.1c5.7,1.7,9.1,7.7,7.5,13.4c-3.1,11.4-5.8,23.1-7.9,34.7c-1.1,6-6.8,9.9-12.8,8.8
						C2319,980,2318.6,979.9,2318.2,979.8z M2345.9,888c-0.4-0.1-0.8-0.3-1.2-0.4c-5.6-2.4-8.2-8.8-5.8-14.4
						c4.9-11.5,10.3-22.9,16.1-33.8c2.8-5.4,9.5-7.4,14.9-4.6c5.4,2.8,7.4,9.5,4.6,14.9c-5.5,10.4-10.7,21.2-15.3,32.1
						C2356.9,887,2351.2,889.6,2345.9,888z M2393,804.6c-1.2-0.3-2.3-0.9-3.4-1.7c-4.9-3.6-6-10.4-2.4-15.4
						c7.3-10.1,15.1-20,23.3-29.4c4-4.6,10.9-5.1,15.5-1.1c4.6,4,5.1,10.9,1.1,15.5c-7.7,8.9-15.2,18.3-22.1,27.9
						C2402.2,804.4,2397.4,805.9,2393,804.6z M2457.7,733.9c-1.9-0.6-3.7-1.7-5.2-3.3c-4-4.6-3.5-11.5,1-15.5
						c9.4-8.2,19.2-16.1,29.3-23.4c4.9-3.6,11.8-2.5,15.4,2.4c3.6,4.9,2.5,11.8-2.4,15.4c-9.5,7-18.9,14.5-27.8,22.3
						C2465.1,734.2,2461.2,734.9,2457.7,733.9z M2536.5,679.3c-2.7-0.8-5.1-2.6-6.6-5.3c-2.9-5.3-0.9-12,4.5-14.9
						c10.9-5.9,22.3-11.4,33.7-16.4c5.6-2.4,12.1,0.1,14.5,5.7c2.4,5.6-0.1,12-5.7,14.5c-10.9,4.7-21.7,10-32.1,15.6
						C2542.1,679.9,2539.1,680.1,2536.5,679.3z M2625.3,643.5c-3.5-1-6.5-3.8-7.5-7.6c-1.6-5.9,1.8-11.9,7.7-13.5
						c12-3.3,24.3-6.2,36.5-8.5c6-1.1,11.7,2.8,12.8,8.8c1.1,6-2.8,11.7-8.8,12.8c-11.6,2.2-23.3,4.9-34.7,8.1
						C2629.3,644.1,2627.2,644.1,2625.3,643.5z M3019.5,731.8c-1.5-0.4-2.9-1.2-4.1-2.2c-8.9-7.7-18.4-15.2-28-22.1
						c-4.9-3.6-6-10.4-2.5-15.4c3.6-4.9,10.4-6,15.4-2.5c10.1,7.3,20,15.1,29.4,23.3c4.6,4,5.1,10.9,1.1,15.5
						C3028,731.8,3023.5,733,3019.5,731.8z M2719.9,628.4c-4.4-1.3-7.7-5.2-7.9-10c-0.3-6.1,4.4-11.2,10.5-11.5
						c12.4-0.6,25.1-0.6,37.5-0.1c6.1,0.3,10.8,5.3,10.6,11.4c-0.2,6.1-5.4,10.8-11.4,10.6c-11.8-0.5-23.8-0.4-35.6,0.1
						C2722.2,628.8,2721,628.7,2719.9,628.4z M2940.3,677.8c-0.7-0.2-1.4-0.5-2.1-0.8c-10.5-5.5-21.3-10.7-32.2-15.3
						c-5.6-2.4-8.2-8.8-5.8-14.4c2.4-5.6,8.8-8.2,14.4-5.8c11.5,4.9,22.9,10.3,33.9,16.1c5.4,2.8,7.4,9.5,4.6,14.9
						C2950.7,677.1,2945.2,679.3,2940.3,677.8z M2815.5,634.7c-5.3-1.6-8.7-6.9-7.7-12.5c1.1-6,6.8-9.9,12.8-8.9
						c12.2,2.2,24.5,5,36.6,8.2c0.1,0,0.2,0,0.2,0.1c5.7,1.7,9.1,7.6,7.5,13.4c-1.6,5.9-7.6,9.3-13.5,7.7
						c-11.4-3.1-23.1-5.7-34.8-7.8C2816.2,634.9,2815.8,634.8,2815.5,634.7z"/>
					<linearGradient id="SVGID_6_" gradientUnits="userSpaceOnUse" x1="3601.2085" y1="276.2441" x2="1559.6909" y2="2176.2698">
						<stop  offset="0" style="stop-color:#FF928E"/>
						<stop  offset="1" style="stop-color:#FE7062"/>
					</linearGradient>
					<path class="st12" d="M3073.2,787.4c-2.1-0.6-4-1.8-5.5-3.7c-3.6-4.4-7.3-8.8-11-13.1c-4-4.6-3.5-11.5,1-15.5
						c4.6-4,11.5-3.5,15.5,1c4,4.5,7.9,9.2,11.6,13.8c3.8,4.7,3.1,11.7-1.7,15.5C3080.3,787.7,3076.5,788.3,3073.2,787.4z"/>
				</g>
				<g class="st10">
					<linearGradient id="SVGID_7_" gradientUnits="userSpaceOnUse" x1="3806.6633" y1="497" x2="1765.1449" y2="2397.0264">
						<stop  offset="0" style="stop-color:#FF928E"/>
						<stop  offset="1" style="stop-color:#FE7062"/>
					</linearGradient>
					<path class="st13" d="M3164.8,1109.9c-5.1-1.5-8.5-6.5-7.8-11.9c0.7-5.6,1.3-11.4,1.8-17c0.5-6.1,5.8-10.5,11.9-10
						c6.1,0.5,10.5,5.8,10,11.9c-0.5,6-1.2,12-1.9,17.9c-0.8,6-6.3,10.3-12.3,9.5C3165.9,1110.2,3165.3,1110.1,3164.8,1109.9z"/>
					<linearGradient id="SVGID_8_" gradientUnits="userSpaceOnUse" x1="3741.3506" y1="426.8203" x2="1699.8308" y2="2326.8479">
						<stop  offset="0" style="stop-color:#FF928E"/>
						<stop  offset="1" style="stop-color:#FE7062"/>
					</linearGradient>
					<path class="st14" d="M2619.6,1467.5c-4.9-1.4-9.7-2.9-14.6-4.5c-5.8-1.9-8.9-8.1-7-13.9c1.9-5.8,8.2-8.9,13.9-7
						c11.2,3.7,22.5,6.9,33.7,9.6c5.9,1.4,9.5,7.4,8.1,13.3c-1.4,5.9-7.4,9.5-13.3,8.1C2633.6,1471.4,2626.6,1469.5,2619.6,1467.5z
						 M2551.3,1441c-0.6-0.2-1.2-0.4-1.7-0.7c-11-5.4-21.9-11.3-32.5-17.6c-5.2-3.1-6.9-9.9-3.8-15.1c3.1-5.2,9.9-6.9,15.1-3.8
						c10,6,20.4,11.6,30.8,16.7c5.5,2.7,7.7,9.3,5.1,14.7C2561.9,1440.2,2556.4,1442.5,2551.3,1441z M2697.6,1482.7
						c-5-1.5-8.4-6.3-7.8-11.6c0.6-6,6-10.5,12-9.9c11.6,1.2,23.3,1.8,35,2c6.1,0.1,10.9,5.1,10.8,11.2c-0.1,6.1-5.1,10.9-11.2,10.8
						c-12.3-0.2-24.7-0.9-36.8-2.1C2699,1483,2698.3,1482.9,2697.6,1482.7z M2471.7,1390.5c-1.3-0.4-2.6-1.1-3.8-2
						c-9.6-7.7-18.9-15.8-27.8-24.3c-4.4-4.2-4.6-11.1-0.4-15.5c4.2-4.4,11.1-4.6,15.5-0.4c8.4,8,17.3,15.8,26.4,23.1
						c4.7,3.8,5.5,10.7,1.7,15.5C2480.5,1390.4,2475.8,1391.7,2471.7,1390.5z M2791.9,1481.6c-4.1-1.2-7.3-4.7-7.8-9.2
						c-0.7-6,3.5-11.5,9.6-12.3c11.5-1.4,23.2-3.4,34.6-5.8c5.9-1.2,11.8,2.6,13,8.5c1.2,5.9-2.6,11.8-8.5,13
						c-12,2.5-24.3,4.6-36.4,6.1C2794.8,1482.1,2793.3,1482,2791.9,1481.6z M2883.6,1459.8c-3.3-1-6-3.4-7.3-6.9
						c-2-5.7,0.9-12,6.7-14.1c11-3.9,21.9-8.3,32.5-13.2c5.5-2.5,12-0.1,14.6,5.5c2.5,5.5,0.1,12.1-5.5,14.6
						c-11.1,5.1-22.7,9.7-34.2,13.8C2888.1,1460.4,2885.7,1460.4,2883.6,1459.8z M2968.4,1418.5c-2.5-0.7-4.7-2.3-6.2-4.7
						c-3.2-5.1-1.7-11.9,3.4-15.2c9.9-6.2,19.6-12.9,28.9-19.9c4.8-3.7,11.7-2.7,15.4,2.2c3.7,4.9,2.7,11.7-2.2,15.4
						c-9.8,7.4-20,14.4-30.4,21C2974.6,1419.1,2971.3,1419.4,2968.4,1418.5z M3042.1,1359.8c-1.7-0.5-3.3-1.4-4.7-2.8
						c-4.3-4.3-4.3-11.3,0-15.6c8.3-8.2,16.3-16.9,23.8-25.8c3.9-4.6,10.9-5.2,15.5-1.3c4.6,3.9,5.2,10.9,1.3,15.5
						c-7.9,9.3-16.3,18.5-25,27.1C3050,1360,3045.9,1360.9,3042.1,1359.8z M3101.2,1286.3c-1-0.3-1.9-0.7-2.8-1.3
						c-5.1-3.3-6.6-10.1-3.4-15.2c6.2-9.8,12.1-20,17.5-30.4c2.8-5.4,9.5-7.5,14.8-4.7c5.4,2.8,7.5,9.5,4.7,14.8
						c-5.7,10.9-11.9,21.6-18.4,32C3110.9,1285.8,3105.8,1287.6,3101.2,1286.3z M3142.7,1201.6c-0.2-0.1-0.4-0.1-0.6-0.2
						c-5.7-2.1-8.7-8.4-6.6-14.1c2.9-8.1,5.6-16.3,8-24.5c0.9-3,1.7-6,2.5-8.9c1.6-5.9,7.6-9.3,13.5-7.8c6,1.5,9.3,7.6,7.8,13.5
						c-0.8,3.1-1.7,6.3-2.6,9.4c-2.5,8.6-5.4,17.3-8.4,25.8C3154.1,1200.3,3148.2,1203.2,3142.7,1201.6z"/>
					<linearGradient id="SVGID_9_" gradientUnits="userSpaceOnUse" x1="3558.447" y1="230.3009" x2="1516.9302" y2="2130.3259">
						<stop  offset="0" style="stop-color:#FF928E"/>
						<stop  offset="1" style="stop-color:#FE7062"/>
					</linearGradient>
					<path class="st15" d="M2404.9,1323.5c-2.1-0.6-4-1.9-5.5-3.7c-3.7-4.7-7.4-9.5-10.9-14.3c-3.6-4.9-2.5-11.8,2.4-15.4
						c4.9-3.6,11.8-2.5,15.4,2.4c3.4,4.6,6.9,9.2,10.4,13.6c3.8,4.7,3,11.7-1.7,15.5C2411.9,1323.9,2408.2,1324.5,2404.9,1323.5z"/>
				</g>
				<g>
					<linearGradient id="SVGID_10_" gradientUnits="userSpaceOnUse" x1="3585.5659" y1="259.4338" x2="1544.0488" y2="2159.459">
						<stop  offset="0" style="stop-color:#FF928E"/>
						<stop  offset="1" style="stop-color:#FE7062"/>
					</linearGradient>
					<path class="st16" d="M2455,1205.3c0.9,2,2.9,3.3,5.1,3.1l62.4-4.2c17.2,23.6,38.3,44.7,62.8,62.1l-3.4,62.4
						c-0.1,2.2,1.2,4.2,3.2,5l69.5,28.3c2,0.8,4.4,0.3,5.8-1.4l41.1-47.1c29.7,4.7,59.5,4.3,88.3-0.6l41.8,46.6
						c1.5,1.6,3.8,2.2,5.8,1.3l69.1-29.2c2-0.9,3.3-2.9,3.1-5.1l-4.2-62.4c23.6-17.2,44.7-38.3,62.1-62.8l62.4,3.4
						c2.2,0.1,4.2-1.2,5-3.2l28.3-69.5c0.8-2,0.3-4.4-1.4-5.8L3015,1085c4.7-29.7,4.3-59.5-0.6-88.3l46.6-41.8
						c1.6-1.5,2.2-3.8,1.3-5.8l-29.2-69.1c-0.9-2-2.9-3.3-5.1-3.1l-62.4,4.2c-17.2-23.6-38.3-44.7-62.8-62.1l3.4-62.4
						c0.1-2.2-1.2-4.2-3.2-5l-69.5-28.3c-2-0.8-4.4-0.3-5.8,1.4l-41.1,47.1c-29.7-4.7-59.5-4.3-88.3,0.6l-41.8-46.6
						c-1.5-1.6-3.8-2.2-5.8-1.3l-69.1,29.2c-2,0.9-3.3,2.9-3.1,5.1l4.2,62.4c-23.6,17.2-44.7,38.3-62.1,62.8l-62.4-3.4
						c-2.2-0.1-4.2,1.2-5,3.2l-28.3,69.5c-0.8,2-0.3,4.4,1.4,5.8l47.1,41.1c-4.7,29.7-4.3,59.5,0.6,88.3l-46.6,41.8
						c-1.6,1.5-2.2,3.8-1.3,5.8L2455,1205.3z"/>
					<path class="st17" d="M2722.8,1115c-35.3-10.3-58.7-45.3-53.4-82.8c5.8-41.2,44-70,85.2-64.3c20,2.8,37.6,13.2,49.8,29.3
						c12.1,16.1,17.3,35.9,14.5,55.9c-5.8,41.2-44,70-85.2,64.3C2729.9,1116.8,2726.3,1116,2722.8,1115z M2760.5,987.1
						c-2.7-0.8-5.5-1.4-8.4-1.8c-31.6-4.4-60.9,17.7-65.3,49.3c-4.4,31.6,17.7,60.9,49.3,65.3c31.6,4.4,60.9-17.7,65.3-49.3
						c2.1-15.3-1.8-30.5-11.1-42.9C2782.7,997.7,2772.3,990.6,2760.5,987.1z"/>
					<path class="st17" d="M2693.6,1220c-6.1-1.8-12.1-3.9-18-6.3l0,0c-1.9-0.8-3.7-1.5-5.6-2.4c-9.1-4-17.8-8.8-26.1-14.2
						c-0.1-0.1-0.2-0.1-0.3-0.2c-0.3-0.2-0.6-0.4-1-0.6c-0.6-0.4-1.2-0.8-1.9-1.2c-1.6-1.1-2.3-3.1-1.7-4.9c0.1-0.4,0.3-0.9,0.6-1.2
						c1.4-2,4.1-2.5,6.1-1.2c10.3,7,21.5,13,33.2,17.8c58,23.6,121.4,14,169-19.8c26.5-18.8,48.1-45.1,61.2-77.4
						c2.3-5.7,4.3-11.4,6-17.2c11.4-38.9,9.1-80.2-6.9-118.1c-18.3-43.5-52.5-77.2-96.2-95c-90.3-36.7-193.5,6.9-230.2,97.1
						c-2.3,5.6-4.2,11.2-5.9,17c-7.3,24.8-9,51-5.1,76.5c0.1,0.7,0.1,1.3-0.1,1.9c-0.5,1.6-1.8,2.8-3.5,3.1c-2.4,0.4-4.7-1.3-5-3.7
						c-4.2-26.9-2.3-54.3,5.3-80.3c1.8-6,3.8-12,6.2-17.8c38.5-94.8,147-140.5,241.7-102c45.9,18.7,81.8,54.1,101,99.7
						c16.8,39.7,19.2,83.1,7.2,123.9c-1.8,6.1-3.9,12.1-6.3,18c-18.7,45.9-54.1,81.8-99.7,101
						C2777.8,1229.5,2734.5,1232,2693.6,1220z"/>
				</g>
			</g>
			<g>
				<g class="st10">
					<linearGradient id="SVGID_11_" gradientUnits="userSpaceOnUse" x1="3231.1138" y1="-121.4139" x2="1189.5935" y2="1778.6141">
						<stop  offset="0" style="stop-color:#FF928E"/>
						<stop  offset="1" style="stop-color:#FE7062"/>
					</linearGradient>
					<path class="st18" d="M1876.5,1152.3c-2.8-0.8-4.9-3.4-4.9-6.5c0-5.8,0.2-11.6,0.5-17.4c0.2-3.7,3.4-6.6,7.2-6.4
						c3.8,0.2,6.6,3.4,6.4,7.2c-0.3,5.5-0.5,11.1-0.5,16.6c0,3.7-3,6.8-6.8,6.8C1877.7,1152.6,1877.1,1152.5,1876.5,1152.3z"/>
					<linearGradient id="SVGID_12_" gradientUnits="userSpaceOnUse" x1="3236.2649" y1="-115.8781" x2="1194.7473" y2="1784.1473">
						<stop  offset="0" style="stop-color:#FF928E"/>
						<stop  offset="1" style="stop-color:#FE7062"/>
					</linearGradient>
					<path class="st19" d="M1881.3,1100.3c-3.3-1-5.4-4.3-4.8-7.8c1.8-9.8,4.1-19.5,6.9-29.1c0.6-2,1.2-4,1.8-6
						c1.1-3.6,5.1-5.4,8.5-4.4c3.6,1.1,5.6,4.9,4.4,8.5c-0.6,1.9-1.2,3.8-1.8,5.7c-2.7,9.1-4.9,18.4-6.6,27.7
						c-0.7,3.7-4.2,6.1-7.9,5.4C1881.7,1100.4,1881.5,1100.3,1881.3,1100.3z M1902.6,1033c-0.3-0.1-0.6-0.2-0.9-0.3
						c-3.4-1.6-4.9-5.6-3.4-9c5-11,10.7-21.7,17-31.9c2-3.2,6.2-4.2,9.3-2.2c3.2,2,4.2,6.1,2.2,9.3c-6,9.8-11.5,20-16.2,30.4
						C1909.2,1032.4,1905.7,1034,1902.6,1033z M1939.5,972.9c-0.8-0.2-1.6-0.6-2.3-1.2c-2.9-2.3-3.4-6.6-1-9.6
						c7.5-9.4,15.7-18.4,24.3-26.8c2.7-2.6,7-2.6,9.6,0.1c2.6,2.7,2.6,7-0.1,9.6c-8.2,8-16,16.6-23.2,25.5
						C1944.9,972.9,1942.1,973.7,1939.5,972.9z M1990.1,923.8c-1.3-0.4-2.6-1.2-3.5-2.4c-2.3-3-1.7-7.3,1.3-9.5
						c9.6-7.3,19.7-14,30.1-20c3.2-1.9,7.4-0.8,9.3,2.5c1.9,3.2,0.8,7.4-2.5,9.3c-9.9,5.7-19.6,12.1-28.7,19.1
						C1994.3,924,1992.1,924.4,1990.1,923.8z M2051.2,888.5c-1.9-0.6-3.5-1.9-4.3-3.9c-1.5-3.5,0.1-7.4,3.6-8.9
						c11.1-4.7,22.5-8.8,34.1-12.1c3.6-1,7.4,1,8.4,4.7c1,3.6-1.1,7.4-4.7,8.4c-11,3.2-21.9,7-32.5,11.5
						C2054.2,888.8,2052.6,888.9,2051.2,888.5z M2118.9,869c-2.4-0.7-4.4-2.8-4.8-5.5c-0.6-3.7,1.9-7.2,5.7-7.8
						c11.9-1.9,24-3,36-3.4c3.8-0.1,6.9,2.8,7,6.6c0.1,3.7-2.8,6.9-6.6,7c-11.4,0.4-23,1.5-34.3,3.2
						C2120.9,869.4,2119.9,869.3,2118.9,869z M2189.4,866.8c-3.1-0.9-5.2-3.9-4.8-7.1c0.3-3.7,3.7-6.5,7.4-6.1
						c11.9,1.1,24,3,35.7,5.5c3.7,0.9,6,4.4,5.2,8.1c-0.8,3.7-4.4,6-8.1,5.2c-11.2-2.5-22.7-4.2-34.1-5.3
						C2190.2,867,2189.8,866.9,2189.4,866.8z M2290.8,895.6c-0.4-0.1-0.8-0.3-1.1-0.4c-8.9-4.4-18.1-8.4-27.5-11.9
						c-1.4-0.5-2.8-1-4.2-1.5c-3.5-1.2-5.4-5.1-4.2-8.7c1.2-3.6,5.2-5.5,8.7-4.2c1.5,0.5,3,1.1,4.5,1.6c9.8,3.6,19.5,7.8,28.8,12.4
						c3.4,1.7,4.7,5.7,3.1,9.1C2297.3,895.1,2293.9,896.5,2290.8,895.6z"/>
				</g>
				<g class="st10">
					<linearGradient id="SVGID_13_" gradientUnits="userSpaceOnUse" x1="3472.2241" y1="137.6519" x2="1430.7061" y2="2037.6779">
						<stop  offset="0" style="stop-color:#FF928E"/>
						<stop  offset="1" style="stop-color:#FE7062"/>
					</linearGradient>
					<path class="st20" d="M2086.4,1428.4c-3.6-1-5.6-4.8-4.6-8.3c1-3.6,4.8-5.7,8.4-4.7c10.9,3,22,5.4,33.2,7.1
						c3.7,0.6,6.3,4,5.7,7.7c-0.6,3.7-4,6.3-7.7,5.7C2109.6,1434.1,2097.9,1431.6,2086.4,1428.4
						C2086.4,1428.4,2086.4,1428.4,2086.4,1428.4z M2053.5,1417.1c-0.2-0.1-0.5-0.2-0.7-0.2c-10.9-4.5-21.7-9.7-32-15.5
						c-3.3-1.8-4.4-6-2.6-9.2c1.8-3.3,6-4.4,9.3-2.6c9.8,5.5,20.1,10.5,30.5,14.8c3.5,1.4,5.1,5.4,3.7,8.9
						C2060.4,1416.4,2056.8,1418,2053.5,1417.1z M2155,1438.8c-2.9-0.8-5-3.6-4.9-6.7c0.1-3.7,3.2-6.7,7-6.6
						c11.3,0.3,22.7-0.1,33.9-1.1c3.7-0.3,7,2.4,7.4,6.1c0.4,3.7-2.4,7-6.1,7.4c-11.8,1.1-23.7,1.5-35.6,1.1
						C2156.1,1439.1,2155.5,1439,2155,1438.8z M1993.1,1383c-0.7-0.2-1.5-0.6-2.1-1c-9.5-7-18.7-14.7-27.3-22.8
						c-2.7-2.6-2.8-6.9-0.3-9.6c2.6-2.7,6.9-2.8,9.6-0.3c8.2,7.7,17,15.1,26,21.8c3,2.2,3.7,6.5,1.4,9.5
						C1998.7,1382.9,1995.7,1383.8,1993.1,1383z M2224,1432.4c-2.3-0.7-4.2-2.6-4.7-5.1c-0.8-3.7,1.5-7.3,5.2-8.1
						c11-2.4,22-5.5,32.6-9.2c3.5-1.2,7.4,0.6,8.7,4.2c1.2,3.5-0.6,7.4-4.2,8.7c-11.2,3.9-22.7,7.1-34.2,9.7
						C2226.2,1432.7,2225.1,1432.7,2224,1432.4z M2289.5,1409.5c-1.8-0.5-3.3-1.7-4.2-3.5c-1.7-3.4-0.3-7.4,3.1-9.1
						c10.1-5,20.1-10.6,29.5-16.8c3.1-2,7.4-1.2,9.4,2c2,3.1,1.2,7.3-2,9.4c-9.9,6.4-20.3,12.4-30.9,17.6
						C2292.8,1409.9,2291.1,1410,2289.5,1409.5z M2347.7,1371.7c-1.2-0.4-2.4-1.1-3.3-2.2c-2.4-2.9-2-7.2,0.8-9.6
						c8.7-7.3,16.9-15.1,24.6-23.4c2.6-2.7,6.9-2.9,9.6-0.3c2.7,2.6,2.9,6.9,0.3,9.6c-8.1,8.6-16.7,16.9-25.8,24.5
						C2352.1,1371.9,2349.8,1372.3,2347.7,1371.7z"/>
					<linearGradient id="SVGID_14_" gradientUnits="userSpaceOnUse" x1="3351.2166" y1="7.6394" x2="1309.7009" y2="1907.663">
						<stop  offset="0" style="stop-color:#FF928E"/>
						<stop  offset="1" style="stop-color:#FE7062"/>
					</linearGradient>
					<path class="st21" d="M1942.4,1335.1c-1.3-0.4-2.4-1.1-3.3-2.2c-3.7-4.5-7.3-9.1-10.7-13.7c-2.2-3-1.6-7.3,1.5-9.5
						c3-2.2,7.3-1.6,9.5,1.5c3.2,4.4,6.6,8.8,10.2,13.1c2.4,2.9,2,7.2-0.9,9.6C1946.8,1335.3,1944.5,1335.7,1942.4,1335.1z"/>
				</g>
				<g>
					<linearGradient id="SVGID_15_" gradientUnits="userSpaceOnUse" x1="3367.5955" y1="25.2302" x2="1326.0782" y2="1925.2552">
						<stop  offset="0" style="stop-color:#FF928E"/>
						<stop  offset="1" style="stop-color:#FE7062"/>
					</linearGradient>
					<path class="st22" d="M1972.5,1252.5c0.6,1.4,1.9,2.2,3.4,2.1l41.8-2.8c11.5,15.8,25.6,29.9,42,41.5l-2.3,41.8
						c-0.1,1.5,0.8,2.8,2.1,3.4l46.5,18.9c1.4,0.6,2.9,0.2,3.9-0.9l27.5-31.5c19.9,3.1,39.8,2.9,59.1-0.4l28,31.2
						c1,1.1,2.5,1.4,3.9,0.9l46.3-19.5c1.4-0.6,2.2-1.9,2.1-3.4l-2.8-41.8c15.8-11.5,29.9-25.6,41.5-42l41.8,2.3
						c1.5,0.1,2.8-0.8,3.4-2.1l18.9-46.5c0.6-1.4,0.2-2.9-0.9-3.9l-31.5-27.5c3.1-19.9,2.9-39.8-0.4-59.1l31.2-28
						c1.1-1,1.4-2.5,0.9-3.9l-19.5-46.3c-0.6-1.4-1.9-2.2-3.4-2.1l-41.8,2.8c-11.5-15.8-25.6-29.9-42-41.5l2.3-41.8
						c0.1-1.5-0.8-2.8-2.1-3.4l-46.5-18.9c-1.4-0.6-2.9-0.2-3.9,0.9l-27.5,31.5c-19.9-3.1-39.8-2.9-59.1,0.4l-28-31.2
						c-1-1.1-2.5-1.4-3.9-0.9l-46.3,19.5c-1.4,0.6-2.2,1.9-2.1,3.4l2.8,41.8c-15.8,11.5-29.9,25.6-41.5,42l-41.8-2.3
						c-1.5-0.1-2.8,0.8-3.4,2.1l-18.9,46.5c-0.6,1.4-0.2,2.9,0.9,3.9l31.5,27.5c-3.1,19.9-2.9,39.8,0.4,59.1l-31.2,28
						c-1.1,1-1.4,2.5-0.9,3.9L1972.5,1252.5z"/>
					<path class="st17" d="M2151.4,1192.9c-10.5-3.1-19.7-9.4-26.5-18.3c-8.3-11-11.8-24.5-9.9-38.1c3.9-28.1,29.9-47.7,58-43.8
						c28.1,4,47.7,30,43.8,58c-1.9,13.6-9,25.6-19.9,33.9c-11,8.3-24.5,11.8-38.1,9.9C2156.3,1194.2,2153.8,1193.6,2151.4,1192.9z
						 M2176.6,1107.4c-1.8-0.5-3.6-0.9-5.4-1.2c-20.6-2.9-39.8,11.6-42.7,32.2c-1.4,10,1.2,19.9,7.3,28c6.1,8.1,14.9,13.3,24.9,14.7
						l0,0c10,1.4,19.9-1.2,28-7.3c8.1-6.1,13.3-14.9,14.7-24.9C2206,1130.1,2194.3,1112.5,2176.6,1107.4z"/>
					<path class="st17" d="M2130.9,1266c-4.1-1.2-8.2-2.6-12.3-4.3c-8.1-3.3-15.8-7.4-23-12.2c-0.3-0.2-0.6-0.4-1-0.7
						c-2.5-1.7-3.5-4.8-2.7-7.5c0.2-0.7,0.5-1.3,0.9-1.9c2.1-3.1,6.3-3.9,9.4-1.8c6.7,4.6,13.9,8.4,21.5,11.5l0,0
						c0.4,0.2,0.8,0.3,1.2,0.5c17.9,7.1,36.9,9.4,55.6,7.2c10.1-1.2,20.1-3.8,29.8-7.8c0.1,0,0.2-0.1,0.2-0.1
						c0.2-0.1,0.5-0.2,0.7-0.3c28.2-11.9,50-34,61.5-62.3c1.5-3.7,2.8-7.4,3.9-11.1c7.4-25.2,5.9-51.9-4.4-76.4
						c-11.9-28.2-34-50-62.3-61.5c-28.3-11.5-59.4-11.3-87.5,0.6c-28.2,11.9-50,34-61.5,62.3c-1.5,3.6-2.7,7.3-3.8,11
						c-4.7,16.1-5.8,33-3.3,49.5c0.2,1,0.1,2-0.2,3c-0.7,2.4-2.8,4.4-5.5,4.8c-3.7,0.6-7.2-2-7.8-5.7c-2.9-18.5-1.6-37.5,3.7-55.4
						c1.2-4.2,2.6-8.2,4.3-12.3c12.9-31.7,37.3-56.4,68.8-69.7c31.5-13.3,66.3-13.5,97.9-0.6c31.7,12.9,56.4,37.3,69.7,68.8
						c11.6,27.4,13.2,57.3,5,85.5c-1.2,4.2-2.7,8.3-4.3,12.4C2260.5,1252.6,2193.1,1284.2,2130.9,1266z"/>
				</g>
			</g>
		</g>
	</g>
</g>
</svg>
